<svg xmlns:xlink="http://www.w3.org/1999/xlink" class="vessi-icon vessi-icon-umbrella" viewBox="0 0 117 123" fill="none" xmlns="http://www.w3.org/2000/svg" width="117"  height="123" >
<path d="M2.56309 44.5644C6.71036 33.1766 14.3792 23.4071 24.4561 16.674C30.7106 12.5723 37.6638 9.65147 44.9712 8.05639C52.7565 5.83711 60.9874 5.69665 68.8439 7.64888C77.6861 10.1295 86.0321 14.1218 93.5125 19.4493C94.774 20.4003 95.9774 18.2849 94.7352 17.3727C87.7442 12.4474 80.0313 8.63662 71.8717 6.07666C63.9698 3.56885 55.5432 3.2073 47.4555 5.02875C39.4864 6.29663 31.8538 9.15449 25.0118 13.4324C18.1698 17.7103 12.2582 23.3208 7.62877 29.9301C4.54433 34.2207 2.081 38.9251 0.31168 43.9043C-0.192947 45.3988 2.25255 46.0394 2.64072 44.5644H2.56309Z" fill="#2C2C2C"></path>
<path d="M100.597 29.2115C104.21 33.0449 107.203 37.4194 109.466 42.1767C111.473 46.5591 112.783 51.2283 113.348 56.0151C114.667 66.4881 113.51 77.1243 109.971 87.0691C109.486 88.5636 111.912 89.204 112.32 87.7095C115.941 77.3733 117.098 66.3339 115.697 55.4716C115.061 50.48 113.66 45.616 111.543 41.0508C109.177 36.1125 106.053 31.5744 102.285 27.6007C101.218 26.4556 99.5097 28.1829 100.577 29.3087L100.597 29.2115Z" fill="#2C2C2C"></path>
<path d="M2.91239 44.4478C7.00763 43.4967 10.54 42.604 14.3441 45.0107C17.2725 47.1795 19.7677 49.8787 21.7001 52.9682C23.5051 55.472 25.116 58.4415 28.6096 58.2668C30.5853 57.9978 32.5336 57.5563 34.4322 56.9471C37.0552 56.273 39.7603 55.9722 42.4674 56.0542C47.0263 56.3564 51.2969 58.3912 54.4038 61.741C56.7717 64.303 58.2855 67.8936 61.6044 69.3105C65.4862 70.902 69.9502 68.9806 73.7155 68.1266C78.8394 66.9815 83.1676 67.4277 87.3016 70.8825C90.3294 73.4638 92.7749 76.7051 96.1326 78.8594C100.286 81.5766 107.623 81.7709 109.272 87.2247C109.738 88.7192 112.087 88.0788 111.621 86.5843C110.398 82.5279 106.788 80.7617 103.062 79.306C100.854 78.6115 98.7471 77.6328 96.7925 76.3947C95.0746 75.055 93.4652 73.5818 91.9791 71.9889C89.5105 69.1022 86.3527 66.8856 82.7988 65.5451C78.3154 64.2447 73.6767 65.7003 69.2127 66.729C66.5537 67.3694 63.6229 68.1264 61.2745 66.302C59.6859 64.7578 58.2853 63.0314 57.1016 61.1587C54.6372 58.089 51.3327 55.8029 47.5913 54.5791C43.0859 53.3075 38.3165 53.3075 33.8111 54.5791C31.5985 55.0837 28.2408 56.7531 26.2611 55.0451C24.8833 53.5488 23.6607 51.9165 22.6123 50.1735C20.4918 46.8632 17.6103 44.1082 14.2083 42.1382C10.1324 40.1974 6.44478 41.1096 2.21367 42.1382C0.699791 42.4876 1.34028 44.836 2.85416 44.4866L2.91239 44.4478Z" fill="#2C2C2C"></path>
<path d="M57.3345 62.8277C53.7633 72.2215 51.803 82.2366 48.4453 91.6693C45.5923 99.7627 41.1671 112.223 31.7926 114.707C24.9413 116.512 21.1372 110.302 21.3313 104.246C21.3313 104.052 21.3313 102.965 21.3313 103.547C21.3313 104.13 21.3313 103.392 21.3313 103.392C21.506 102.577 21.6613 101.762 21.8165 100.946C22.3218 99.2022 22.493 97.3781 22.3212 95.5702C22.2901 95.2593 22.1936 94.9586 22.0379 94.6877C21.8822 94.4168 21.6708 94.1818 21.4178 93.9985C21.1648 93.8151 20.8758 93.6875 20.5698 93.6239C20.2639 93.5603 19.9479 93.562 19.6428 93.6294C17.1196 94.1728 16.0133 97.8994 15.237 100.015C13.2961 105.139 12.4227 111.214 14.8682 116.318C15.8291 118.377 17.4013 120.089 19.3707 121.221C21.34 122.353 23.6106 122.851 25.873 122.646C32.0644 122.122 36.8777 117.464 40.1966 112.534C41.0506 111.233 38.9545 110.03 38.1005 111.311C35.1503 115.697 30.6475 120.181 24.9996 120.278C22.9139 120.26 20.8992 119.519 19.2992 118.181C17.6993 116.843 16.6133 114.991 16.2268 112.941C15.6278 110.117 15.7009 107.192 16.4403 104.401C16.8013 102.859 17.2815 101.347 17.8766 99.8792C18.2355 99.0183 18.6504 98.1819 19.1187 97.3754C19.5263 96.6572 20.1862 96.2303 19.8563 95.7645C20.555 96.7544 19.6622 99.5104 19.4487 100.578C19.198 101.802 19.023 103.04 18.9246 104.285C18.9246 104.828 19.0411 103.78 18.7888 104.77C18.7112 105.291 18.7112 105.821 18.7888 106.342C18.8652 107.673 19.1535 108.984 19.6428 110.224C20.4689 112.507 21.9552 114.494 23.9127 115.93C25.6723 116.994 27.6929 117.548 29.7491 117.531C31.8052 117.514 33.8163 116.926 35.5579 115.833C43.3214 111.583 47.2032 101.859 50.1339 94.0177C53.8022 84.0222 55.8207 73.5025 59.5859 63.5652C60.1488 62.1096 57.8004 61.4692 57.2569 62.9248L57.3345 62.8277Z" fill="#2C2C2C"></path>
<path d="M104.789 2.466C101.198 6.91061 97.5105 11.3358 94.1917 16.0521C91.3386 20.0503 87.8644 26.1836 90.0188 31.191C90.4341 32.364 91.238 33.3597 92.2972 34.0128C93.3563 34.6659 94.6069 34.9371 95.8414 34.7816C98.4228 34.277 99.7232 31.5598 101.082 29.5219C103.583 24.9316 105.122 19.8794 105.604 14.6742C106.147 10.9089 106.555 7.16286 106.924 3.37816C107.079 1.82546 104.653 1.82546 104.498 3.37816C104.116 9.93683 103.069 16.4398 101.373 22.7869C100.6 25.2548 99.4683 27.596 98.0152 29.7354C97.5592 30.6636 96.895 31.4739 96.0743 32.1032C95.4523 32.3695 94.7514 32.3851 94.1183 32.1463C93.4852 31.9075 92.969 31.4329 92.6778 30.8221C91.2998 28.7066 92.0179 25.7565 92.8525 23.5633C93.7295 21.3397 94.8908 19.2391 96.3072 17.3137C99.5291 12.7915 103.12 8.50213 106.613 4.17398C107.487 2.97064 105.779 1.24325 104.789 2.466Z" fill="#2C2C2C"></path>
<path d="M59.4307 66.884C62.1092 58.5771 66.0297 50.7166 68.7469 42.4291C71.7941 33.1517 73.211 23.5055 75.3847 14.0341C75.8505 12.0932 77.3256 7.76497 74.1426 7.1633C72.551 6.85276 70.2608 8.15315 68.7275 8.87127C66.7867 9.88053 64.7099 11.1033 62.7691 12.3067C54.2558 17.8915 46.7103 24.8273 40.4296 32.841C37.1023 37.007 34.1656 41.4704 31.6568 46.1748C29.5653 49.3979 28.1643 53.0193 27.5422 56.8108C27.3869 58.3635 29.813 58.3635 29.9683 56.8108C30.4951 53.6898 31.6578 50.7103 33.3842 48.0574C35.3434 44.2753 37.568 40.6368 40.0414 37.1691C45.4692 29.6405 52.0141 22.9845 59.4501 17.4306C62.9453 14.827 66.6824 12.565 70.6102 10.6762C71.5775 10.1867 72.592 9.79661 73.6379 9.51168C73.9485 9.76399 73.6379 11.0644 73.5021 11.4526C73.1139 13.6457 72.4734 15.8001 72.0076 17.9933C70.5723 26.1638 68.6671 34.2447 66.3014 42.1959C63.5648 50.3282 59.7607 58.0918 57.1405 66.2628C56.6553 67.7573 59.0814 68.3785 59.4696 66.9035L59.4307 66.884Z" fill="#2C2C2C"></path>
<path d="M74.1811 9.45371C76.2966 13.219 78.5869 16.8873 80.3531 20.8466C82.3678 25.5901 83.896 30.526 84.9141 35.578C86.1807 40.4967 87.0633 45.5062 87.5537 50.5615C87.7325 56.6079 87.2378 62.6554 86.0787 68.5923C85.8263 70.1062 88.1554 70.766 88.4271 69.2327C89.608 63.1866 90.1351 57.031 89.9992 50.8721C89.554 45.7779 88.6972 40.7281 87.4373 35.7721C86.3717 30.4559 84.7922 25.2558 82.7209 20.2451C80.7846 16.1431 78.6338 12.1457 76.2772 8.26981C76.0963 8.03288 75.8351 7.87016 75.5427 7.81231C75.2503 7.75446 74.9468 7.80545 74.6893 7.95565C74.4318 8.10585 74.238 8.34501 74.1445 8.62803C74.0509 8.91106 74.0639 9.21847 74.1811 9.49257V9.45371Z" fill="#2C2C2C"></path>
<path d="M75.2294 7.86226C75.5951 7.02715 75.9126 6.17187 76.1804 5.30041C76.2408 5.08102 76.3187 4.86669 76.4133 4.65977V4.50458C76.2775 4.79571 76.4133 4.34931 76.4133 4.50458L76.588 4.13569L76.8597 3.65048C76.8597 3.65048 77.015 3.47579 77.0344 3.39815C76.8597 3.61165 77.0538 3.32052 77.0344 3.39815L77.1509 3.2624C77.1509 3.2624 77.3256 3.16546 77.3644 3.12664C77.4032 3.08782 77.2479 3.12664 77.2091 3.12664H77.3644C77.0344 3.12664 77.5585 3.12664 77.3644 3.12664C77.6943 3.12664 77.5779 3.12664 77.6167 3.12664C77.3255 3.12664 77.6555 3.12664 77.6167 3.12664H77.7525C77.9061 3.1635 78.0557 3.21543 78.1989 3.28182H78.0825H78.2378C78.3102 3.30604 78.3764 3.34566 78.4319 3.39815H78.5677C78.3736 3.20406 78.7812 3.5146 78.5677 3.39815L78.8006 3.61186C78.8006 3.61186 78.6259 3.34004 78.7036 3.51472C78.7315 3.56911 78.764 3.62097 78.8006 3.6699C78.8006 3.6699 78.8006 3.82528 78.8006 3.53415C78.8006 3.53415 78.8006 3.65053 78.8006 3.70876C78.8006 3.76698 78.8006 3.86396 78.8006 3.88337C78.8006 3.90278 78.8006 3.55351 78.8006 3.72819C78.8104 3.83147 78.8104 3.93551 78.8006 4.03879V4.19398C78.8006 3.86403 78.8006 4.34925 78.8006 4.19398C78.8095 4.32322 78.8095 4.45305 78.8006 4.58229C78.7735 4.7086 78.7345 4.83195 78.6842 4.95095V5.12556C78.6842 5.37787 78.8006 4.87325 78.6842 5.12556C78.5677 5.37787 78.393 5.70796 78.2378 5.99909C77.9272 6.58136 77.5973 7.12481 77.2479 7.70707C77.1307 7.98117 77.1177 8.28858 77.2113 8.57161C77.3049 8.85463 77.4986 9.09379 77.7561 9.24399C78.0136 9.3942 78.3171 9.44495 78.6095 9.3871C78.9019 9.32925 79.1632 9.16676 79.3441 8.92983C80.0855 7.81239 80.6976 6.61413 81.1685 5.35845C81.4051 4.7572 81.4632 4.10055 81.3358 3.4671C81.2084 2.83365 80.901 2.25038 80.4504 1.78731C79.9178 1.28601 79.2546 0.945341 78.5369 0.804554C77.8192 0.663767 77.0764 0.728527 76.3939 0.991487C75.4482 1.6415 74.7612 2.60338 74.4531 3.70876C74.2396 4.23279 74.0649 4.77615 73.8902 5.3196C73.7155 5.86304 73.7155 5.84368 73.6185 6.096L73.502 6.4066C73.3446 6.68309 73.3011 7.01001 73.3808 7.31805C73.4605 7.62608 73.6572 7.89092 73.929 8.0563C74.2085 8.21478 74.5384 8.25888 74.8497 8.17926C75.1609 8.09965 75.4292 7.90256 75.5982 7.62936L75.2294 7.86226Z" fill="#2C2C2C"></path>
<path d="M82.9928 86.5261C81.8671 88.467 80.8966 90.4078 79.7709 92.4651C78.6452 94.5224 77.4807 96.3468 76.3938 98.2877C75.2367 100.298 74.1935 102.372 73.269 104.499C72.533 106.033 72.0293 107.668 71.7745 109.351C71.6241 110.155 71.7026 110.985 72.0011 111.747C72.2997 112.509 72.8062 113.172 73.4631 113.66C74.2703 114.066 75.1775 114.231 76.076 114.134C76.9745 114.038 77.8262 113.684 78.5288 113.116C81.6924 110.942 82.6046 106.362 83.2645 102.849C84.235 97.6278 84.6814 92.4263 85.2054 87.1665C85.3801 85.6138 82.954 85.6332 82.7793 87.1665C82.2359 92.1352 81.8283 97.065 80.8384 101.995C80.5309 104.17 79.9438 106.297 79.0916 108.322C78.718 109.209 78.1926 110.023 77.5389 110.729C76.8984 111.35 75.404 112.243 74.5306 111.544C73.2884 110.535 74.3753 107.953 74.8217 106.769C75.7353 104.479 76.8053 102.255 78.0241 100.112C79.1499 98.1714 80.3338 96.0947 81.5177 94.0956C82.7017 92.0965 83.7691 89.8451 84.9725 87.7683C85.0401 87.5158 85.025 87.2483 84.9293 87.005C84.8337 86.7616 84.6626 86.5554 84.4412 86.4164C84.2198 86.2775 83.9596 86.2131 83.6989 86.2328C83.4383 86.2526 83.1908 86.3554 82.9928 86.5261Z" fill="#2C2C2C"></path>
</svg>