<svg xmlns:xlink="http://www.w3.org/1999/xlink" class="vessi-icon vessi-icon-90-days-to-decide" viewBox="0 0 107 113" fill="none" xmlns="http://www.w3.org/2000/svg" width="107"  height="113" >
    <path d="M3.86386 109.855C2.44702 109.72 3.10689 106.653 3.10689 105.838C3.10689 103.587 3.107 101.335 3.22345 99.0838C3.22345 94.6004 3.33984 90.0974 3.39807 85.614C3.4757 76.686 3.52112 67.7581 3.53406 58.8301C3.547 49.902 3.547 40.9739 3.53406 32.0459C3.53406 27.5625 3.53406 23.0598 3.53406 18.5763C3.53406 16.4802 3.53406 14.3838 3.53406 12.3071C3.53406 10.7156 3.98027 9.64819 5.76588 9.47351C6.84767 9.44445 7.93031 9.48346 9.00722 9.59008C26.6498 10.1141 44.3312 10.0363 61.9738 9.90045C70.7077 9.90045 79.4417 9.72578 88.195 9.66755H94.8326C97.0364 9.522 99.2474 9.522 101.451 9.66755C103.838 9.95868 103.392 11.0068 103.392 12.87C103.508 30.4156 103.631 47.9675 103.761 65.526C103.838 75.0104 103.903 84.5078 103.955 94.0181C103.955 97.337 103.955 100.675 103.955 103.994C104.081 105.103 104.081 106.223 103.955 107.333C103.334 109.584 97.7053 108.827 95.6867 108.904C68.398 109.894 41.0512 109.991 13.7625 109.836C10.4048 109.836 7.04696 109.836 3.68925 109.836C2.13655 109.836 2.13655 112.34 3.68925 112.262C12.035 111.835 20.5166 111.971 28.9206 112.262C35.2867 112.398 41.6138 112.262 47.9799 112.262C62.75 112.049 77.5784 112.262 92.3291 111.486C95.8226 111.311 99.3163 111.331 102.79 111.117C103.299 111.153 103.81 111.076 104.285 110.89C104.76 110.704 105.188 110.415 105.537 110.043C105.886 109.672 106.149 109.227 106.305 108.741C106.461 108.255 106.507 107.741 106.439 107.235C106.439 104.382 106.439 101.529 106.439 98.676C106.439 88.9975 106.374 79.2932 106.245 69.5629L105.837 12.346C105.964 11.1618 105.872 9.9645 105.566 8.81368C105.347 8.3334 105.002 7.92117 104.568 7.62054C104.134 7.31991 103.627 7.14203 103.101 7.1057C100.839 6.95043 98.5694 6.95043 96.3077 7.1057C86.6033 7.1057 76.8991 7.24153 67.2917 7.31917C48.1547 7.49385 28.9984 7.62972 9.88076 7.08627C7.20235 7.08627 3.16531 6.01879 1.61261 9.02715C1.07852 10.6926 0.919469 12.4557 1.14682 14.1899C1.14682 16.616 1.14682 19.0227 1.14682 21.4294C1.14682 31.1726 1.14682 40.9156 1.14682 50.6588C1.14682 60.3632 1.14671 70.0676 1.03026 79.7719C1.03026 84.5594 0.985074 89.3599 0.8945 94.1733C0.8945 98.9673 0.428681 103.878 0.642177 108.652C0.618706 109.098 0.684333 109.544 0.835269 109.964C0.986205 110.384 1.21936 110.77 1.52116 111.099C1.82296 111.428 2.1874 111.693 2.593 111.88C2.9986 112.066 3.43714 112.17 3.88329 112.185C5.41658 112.437 5.41656 110.011 3.86386 109.855Z" fill="#2C2C2C"></path>
    <path d="M3.5729 31.2889C19.9798 31.4054 36.3736 31.5671 52.7546 31.7742C69.8731 31.9877 87.0304 32.5505 104.11 31.2695C105.663 31.1531 105.682 28.727 104.11 28.8434C87.0304 30.1244 69.8731 29.5616 52.7546 29.3481C36.3736 29.141 19.9798 28.9793 3.5729 28.8628C3.27759 28.9003 3.00586 29.0442 2.80906 29.2675C2.61225 29.4908 2.50366 29.7782 2.50366 30.0759C2.50366 30.3736 2.61225 30.6609 2.80906 30.8843C3.00586 31.1076 3.27759 31.2515 3.5729 31.2889Z" fill="#2C2C2C"></path>
    <path d="M47.825 66.6712C47.5131 72.5581 45.2842 78.1814 41.4783 82.6835C39.7857 84.5122 37.9057 86.1581 35.8692 87.5939C34.7823 88.3509 33.6955 89.1466 32.5504 89.8065C31.8711 90.1947 31.017 91.0486 30.2794 90.4469C30.0379 90.2556 29.8722 89.9848 29.8118 89.6826C29.7513 89.3805 29.8003 89.0667 29.9497 88.7973C30.3572 87.8656 31.8906 87.264 32.6475 86.7012C33.4044 86.1383 34.3359 85.4979 35.1511 84.7603C36.9232 83.3762 38.5376 81.801 39.9646 80.0633C42.6903 76.5712 44.5045 72.4561 45.2438 68.0883C45.2757 67.8494 45.2373 67.6064 45.1336 67.3889C45.0298 67.1714 44.865 66.9889 44.6593 66.8634C44.4536 66.7379 44.2159 66.6749 43.975 66.6821C43.7342 66.6894 43.5007 66.7665 43.3029 66.9041C38.9359 70.6306 31.3858 70.7859 29.1538 64.5363C27.4847 59.8976 28.6492 53.4153 33.0356 50.6204C34.1102 49.8851 35.3266 49.3825 36.607 49.1453C37.8873 48.9081 39.2033 48.9416 40.47 49.2432C41.7367 49.5448 42.9262 50.108 43.9622 50.8967C44.9983 51.6854 45.858 52.682 46.4859 53.8227C48.4268 57.7044 48.4266 62.382 47.9802 66.5743C47.8444 68.127 50.2704 68.127 50.4063 66.5743C51.0538 62.0878 50.5394 57.5102 48.912 53.2794C47.9522 51.1394 46.352 49.3499 44.3323 48.1576C42.3126 46.9653 39.9728 46.4287 37.6354 46.6221C35.1006 46.802 32.6856 47.7711 30.7294 49.3931C28.7732 51.0152 27.3739 53.2089 26.7277 55.6666C25.4662 60.1501 25.8932 65.8756 29.445 69.2528C34.0061 73.5421 40.6243 72.4357 45.0883 68.651L43.1475 67.4671C42.1529 73.3721 39.0411 78.7126 34.3941 82.4894C33.1507 83.4773 31.8549 84.3974 30.5123 85.2455C29.4484 85.772 28.559 86.5941 27.9505 87.6133C27.4992 88.5101 27.413 89.5467 27.7098 90.5057C28.0065 91.4647 28.663 92.2716 29.5419 92.7567C31.9292 93.8242 34.336 91.6116 36.1798 90.35C38.8207 88.6519 41.2341 86.6235 43.3612 84.314C47.5921 79.3397 50.0738 73.1145 50.4257 66.5938C50.4063 65.1187 47.9803 65.1379 47.825 66.6712Z" fill="#2C2C2C"></path>
    <path d="M32.0844 62.615C32.5548 64.2069 33.572 65.5816 34.9569 66.4967C36.1312 67.1725 37.5149 67.3871 38.8387 67.0985C40.1944 66.7447 41.4192 66.0069 42.366 64.974C43.3127 63.9412 43.9412 62.6572 44.1761 61.2759C44.4852 59.8036 44.3599 58.2731 43.8155 56.8708C43.271 55.4684 42.3311 54.2544 41.1096 53.3764C40.0173 52.8188 38.7832 52.6003 37.5659 52.749C36.3486 52.8977 35.2036 53.4069 34.2776 54.2111C33.0926 55.2167 32.2449 56.5619 31.8492 58.0649C31.4535 59.5679 31.5289 61.1562 32.065 62.615C32.1556 62.9228 32.3617 63.1836 32.6403 63.3428C32.9188 63.502 33.2484 63.5473 33.5595 63.4691C33.8665 63.3787 34.1259 63.1716 34.2819 62.8922C34.4379 62.6128 34.4781 62.2833 34.394 61.9746C34.2917 61.6495 34.2077 61.319 34.1419 60.9847C34.1419 60.9847 34.1419 60.4413 34.1419 60.7324C34.1323 60.5773 34.1323 60.4217 34.1419 60.2666C34.1225 59.9887 34.1225 59.7098 34.1419 59.4319C34.1419 59.3155 34.1419 59.005 34.1419 59.2767C34.1326 59.1216 34.1326 58.9661 34.1419 58.8109C34.1419 58.578 34.2583 58.3452 34.3359 58.1122C34.3469 58.0415 34.3469 57.9695 34.3359 57.8988L34.53 57.5105C34.6479 57.2965 34.7774 57.0893 34.918 56.8895V56.7535L35.1898 56.4431L35.6556 55.9771L36.0051 55.7442L36.5872 55.4144H36.7426C36.4515 55.4144 36.8979 55.4144 36.7426 55.4144C36.8481 55.364 36.9586 55.3248 37.0724 55.2978L37.713 55.1232C37.5772 55.1232 38.0042 55.1232 37.713 55.1232H38.7029H39.0715L39.3627 55.2396C39.1686 55.1037 39.4986 55.2396 39.3627 55.2396C39.4205 55.2501 39.4796 55.2501 39.5373 55.2396L39.7897 55.395C39.7897 55.395 40.1974 55.7055 39.9451 55.395C40.1004 55.5502 40.275 55.6861 40.4303 55.8608L40.6438 56.1131C40.4497 55.8802 40.6436 56.2295 40.7601 56.3071C40.9084 56.5358 41.0383 56.7759 41.1484 57.0252C41.1484 56.8312 41.2455 57.1805 41.1484 57.0252C41.1892 57.1059 41.2216 57.1904 41.2453 57.2776C41.3058 57.4298 41.3578 57.5853 41.4007 57.7434C41.591 58.3257 41.6826 58.9359 41.6723 59.5485C41.7013 59.8389 41.7013 60.1314 41.6723 60.4218C41.6723 60.1501 41.6723 60.6159 41.6723 60.6741L41.5559 61.1787C41.5559 61.3146 41.556 61.431 41.4202 61.5668C41.4202 61.3921 41.4202 61.6834 41.4202 61.6834C41.3012 61.9544 41.1582 62.2142 40.993 62.4598C40.9151 62.5652 40.8438 62.6753 40.7795 62.7896C40.9154 62.5761 40.7796 62.7897 40.6632 62.9062C40.5467 63.0226 40.2749 63.3136 40.0614 63.5077C40.3439 63.2466 40.5131 62.8856 40.5331 62.5015C40.5532 62.1174 40.4225 61.7405 40.1687 61.4514C39.915 61.1624 39.5583 60.984 39.1748 60.9541C38.7914 60.9242 38.4113 61.0453 38.1158 61.2915C37.8203 61.5378 37.6327 61.8896 37.5929 62.2721C37.5532 62.6547 37.6645 63.0378 37.903 63.3395C38.1416 63.6412 38.4887 63.8379 38.8702 63.8875C39.2516 63.9371 39.6373 63.8356 39.9451 63.6048L39.615 63.8377C39.3906 63.9818 39.1573 64.1114 38.9164 64.2258C38.7611 64.2258 39.1104 64.2258 38.9164 64.2258H38.664H38.2951H37.8876C38.2176 64.2258 37.8877 64.2258 37.6936 64.2258H37.1112H36.7037H36.432L36.1991 64.0901L35.8496 63.8766C36.0825 64.0319 35.7332 63.7602 35.6556 63.702C35.5356 63.5884 35.4254 63.4649 35.3258 63.3331C35.2707 63.2908 35.2243 63.2382 35.1898 63.1779C35.0751 63.0236 34.9713 62.8614 34.8792 62.6927L34.6463 62.2269C34.6463 62.0134 34.7433 62.4791 34.6463 62.1103C34.6096 61.9844 34.5643 61.8613 34.5105 61.7417C34.4685 61.5887 34.3968 61.4456 34.2994 61.3204C34.2021 61.1952 34.081 61.0903 33.9431 61.012C33.8052 60.9336 33.6532 60.8831 33.4958 60.8634C33.3384 60.8437 33.1787 60.8552 33.0257 60.8973C32.8728 60.9393 32.7297 61.0112 32.6045 61.1086C32.4793 61.206 32.3744 61.3271 32.296 61.4649C32.2176 61.6028 32.1671 61.7546 32.1475 61.912C32.1278 62.0694 32.1395 62.2291 32.1816 62.3821L32.0844 62.615Z" fill="#2C2C2C"></path>
    <path d="M77.2292 80.5683C75.8124 83.7707 73.5997 87.4001 70.1061 88.5841C66.6126 89.768 63.3131 87.4002 61.6828 84.2365C58.5386 78.1422 59.2566 70.34 61.1005 63.9545C61.9748 60.4358 63.5601 57.1332 65.7586 54.2501C67.6995 52.0569 70.6884 49.6697 73.7356 49.8832C78.4519 50.2325 79.9658 56.0355 80.548 59.8785C81.3501 67.0863 80.162 74.3762 77.1127 80.9563C76.511 82.3926 78.8596 83.0332 79.4419 81.597C82.6952 74.4863 83.8662 66.5991 82.819 58.85C81.9844 53.9008 79.5776 47.7482 73.7356 47.4571C65.7198 47.0883 60.9258 56.2686 58.9655 62.6929C56.6753 70.2429 55.8214 79.8501 60.3049 86.8178C61.2459 88.4511 62.6677 89.7544 64.3766 90.5498C66.0855 91.3452 67.9982 91.5941 69.8538 91.2625C74.4537 90.2532 77.6173 85.9446 79.3253 81.8882C79.9464 80.3937 77.8697 79.1514 77.2292 80.5683Z" fill="#2C2C2C"></path>
    <path d="M76.9956 58.7714C76.4716 57.0246 75.0548 54.2492 73.1139 53.7057C71.173 53.1623 69.1351 55.2584 68.0482 56.5976C64.9709 60.773 63.1585 65.745 62.8272 70.9213C62.446 73.7201 62.6443 76.5673 63.4095 79.2863C63.6477 80.3554 64.119 81.3587 64.7901 82.2244C65.4611 83.0901 66.3153 83.7968 67.2913 84.2939C69.3874 84.9732 71.406 83.4012 72.7064 81.9067C74.1195 80.1924 75.1754 78.2127 75.8117 76.0841C77.7918 70.5503 78.1751 64.571 76.9179 58.8297C76.5492 57.3352 74.2008 57.9756 74.589 59.4895C75.6468 64.4346 75.3721 69.572 73.7931 74.3761C73.2861 76.4936 72.3334 78.4786 70.9984 80.1987C70.3967 80.8974 69.4067 82.0231 68.4169 82.1396C67.427 82.256 66.4761 80.548 66.0879 79.6941C65.1439 77.2696 64.8171 74.6484 65.1369 72.0663C65.3199 69.3272 65.8681 66.6249 66.7672 64.0311C67.483 61.8633 68.5881 59.8443 70.028 58.0727C70.5908 57.3934 71.7941 55.9571 72.6481 56.3259C73.5021 56.6946 74.3172 58.6355 74.589 59.5283C74.6387 59.6864 74.719 59.833 74.8254 59.96C74.9318 60.087 75.0621 60.1917 75.209 60.2683C75.3559 60.3449 75.5164 60.3918 75.6814 60.4064C75.8464 60.4209 76.0126 60.4028 76.1707 60.3531C76.3287 60.3034 76.4754 60.223 76.6023 60.1166C76.7293 60.0102 76.8342 59.8799 76.9108 59.733C76.9874 59.5862 77.0344 59.4256 77.0489 59.2606C77.0635 59.0956 77.0453 58.9294 76.9956 58.7714Z" fill="#2C2C2C"></path>
    <path d="M18.7312 1.65152V15.2376C18.7686 15.5329 18.9125 15.8044 19.1359 16.0012C19.3592 16.198 19.6466 16.3066 19.9442 16.3066C20.2419 16.3066 20.5293 16.198 20.7526 16.0012C20.976 15.8044 21.1199 15.5329 21.1573 15.2376V1.65152C21.1199 1.35621 20.976 1.08472 20.7526 0.887913C20.5293 0.691109 20.2419 0.58252 19.9442 0.58252C19.6466 0.58252 19.3592 0.691109 19.1359 0.887913C18.9125 1.08472 18.7686 1.35621 18.7312 1.65152Z" fill="#2C2C2C"></path>
    <path d="M86.0017 1.65152V15.2376C86.0391 15.5329 86.1831 15.8044 86.4064 16.0012C86.6297 16.198 86.9171 16.3066 87.2148 16.3066C87.5124 16.3066 87.7998 16.198 88.0231 16.0012C88.2465 15.8044 88.3904 15.5329 88.4278 15.2376V1.65152C88.3904 1.35621 88.2465 1.08472 88.0231 0.887913C87.7998 0.691109 87.5124 0.58252 87.2148 0.58252C86.9171 0.58252 86.6297 0.691109 86.4064 0.887913C86.1831 1.08472 86.0391 1.35621 86.0017 1.65152Z" fill="#2C2C2C"></path>
</svg>