<svg xmlns:xlink="http://www.w3.org/1999/xlink" class="vessi-icon vessi-icon-cloud" viewBox="0 0 158 99" fill="none" xmlns="http://www.w3.org/2000/svg" width="158"  height="99" >
  <g fill="none">
  <path d="M71.8917 55.2788C71.8806 55.9397 72.0039 56.596 72.2542 57.2077C72.5045 57.8195 72.8766 58.374 73.3477 58.8376C73.8189 59.3012 74.3793 59.6642 74.9951 59.9045C75.6108 60.1449 76.269 60.2576 76.9296 60.2358C77.5902 60.214 78.2395 60.0582 78.8381 59.7778C79.4366 59.4974 79.972 59.0983 80.4116 58.6046C80.8512 58.111 81.1858 57.5332 81.3953 56.9063C81.6047 56.2794 81.6846 55.6164 81.63 54.9577C81.63 54.6124 81.4928 54.2812 81.2487 54.0371C81.0045 53.7929 80.6734 53.6558 80.3281 53.6558C79.9828 53.6558 79.6516 53.7929 79.4075 54.0371C79.1633 54.2812 79.0262 54.6124 79.0262 54.9577C79.0652 55.1875 79.0652 55.4222 79.0262 55.652C79.0262 55.5392 79.0869 55.435 79.0262 55.652C79.0262 55.7649 78.9741 55.843 78.9394 55.9384C78.9046 56.0339 78.9394 56.06 78.8786 56.1207C78.9394 55.9818 78.948 55.9471 78.8786 56.0339C78.8092 56.1207 78.7745 56.2422 78.7137 56.3464C78.6529 56.4505 78.6095 56.5113 78.5575 56.5981C78.3752 56.8671 78.7311 56.4158 78.5575 56.6502C78.3839 56.8845 78.2537 56.9539 78.0975 57.1015H78.1582L77.9933 57.2143L77.7416 57.3619C77.6201 57.4313 77.4899 57.4834 77.6895 57.3619L77.3684 57.4747C77.26 57.5171 77.1459 57.5434 77.0299 57.5528H77.1774H76.674H76.4831H76.6306C76.4831 57.6049 76.1099 57.4139 75.9623 57.3705L75.7019 57.2143C75.7019 57.2143 75.3721 56.9713 75.511 57.0841L75.3374 56.9279L75.1291 56.7109C75.077 56.6588 74.9295 56.4071 75.0857 56.6588C74.9555 56.4592 74.8427 56.2683 74.7298 56.06C74.8253 56.2509 74.7298 56.1381 74.7298 56.0079C74.7298 55.8777 74.6691 55.8169 74.6431 55.7215C74.5649 55.4698 74.617 55.626 74.6431 55.7215C74.6299 55.5887 74.6299 55.455 74.6431 55.3222C74.6431 54.9769 74.5059 54.6458 74.2617 54.4016C74.0176 54.1575 73.6864 54.0203 73.3411 54.0203C72.9959 54.0203 72.6647 54.1575 72.4206 54.4016C72.1764 54.6458 72.0392 54.9769 72.0392 55.3222L71.8917 55.2788Z" fill="#2C2C2C"></path>
  <path d="M94.7357 53.1092C95.0418 54.385 95.807 55.5034 96.8853 56.2509C97.9635 56.9984 99.2793 57.3226 100.581 57.1616C101.884 57.0006 103.081 56.3656 103.944 55.378C104.808 54.3904 105.278 53.1192 105.264 51.8073C105.264 51.462 105.127 51.1309 104.883 50.8867C104.638 50.6425 104.307 50.5054 103.962 50.5054C103.617 50.5054 103.286 50.6425 103.041 50.8867C102.797 51.1309 102.66 51.462 102.66 51.8073C102.66 51.9201 102.66 52.0329 102.66 52.1458C102.66 52.4496 102.703 51.9635 102.66 52.2326C102.617 52.5016 102.547 52.6579 102.478 52.8749C102.565 52.6058 102.478 52.9269 102.426 52.9703C102.374 53.0137 102.322 53.1613 102.261 53.2567C102.202 53.3527 102.138 53.4454 102.07 53.5345C102.2 53.3522 102.07 53.5345 102 53.6213C101.847 53.7834 101.685 53.937 101.514 54.0813C101.688 53.9337 101.514 54.0813 101.419 54.142L101.185 54.2809C101.089 54.3417 100.985 54.3851 100.889 54.4372H100.942L100.785 54.4979L100.464 54.5847C100.421 54.5847 100.082 54.6368 100.256 54.5847C100.429 54.5326 100.134 54.5847 100.1 54.5847H99.7698C99.466 54.5847 99.9521 54.6368 99.6743 54.5847L99.3532 54.5153L99.0407 54.4111C98.7022 54.307 99.249 54.5326 98.9366 54.4111C98.7397 54.3086 98.5485 54.1956 98.3637 54.0726C98.0686 53.8817 98.5287 54.2375 98.2683 54.0032L98.0252 53.7775L97.7996 53.5345C97.6086 53.3435 97.8777 53.6907 97.7301 53.4477C97.5826 53.2047 97.5218 53.0918 97.4177 52.9183V52.979C97.3937 52.9285 97.3734 52.8762 97.3569 52.8228C97.3142 52.7008 97.2794 52.5761 97.2528 52.4496C97.2113 52.2804 97.1363 52.1212 97.0322 51.9815C96.928 51.8418 96.797 51.7245 96.6467 51.6364C96.4964 51.5483 96.3299 51.4912 96.1572 51.4686C95.9844 51.4461 95.8089 51.4584 95.641 51.5048C95.4731 51.5513 95.3162 51.631 95.1797 51.7392C95.0431 51.8474 94.9297 51.9819 94.8461 52.1348C94.7625 52.2876 94.7104 52.4557 94.693 52.629C94.6755 52.8024 94.693 52.9775 94.7444 53.1439L94.7357 53.1092Z" fill="#2C2C2C"></path>
  <path d="M87.7835 53.3435L86.4295 56.7719L85.7525 58.5077C85.4905 59.0685 85.2728 59.6489 85.1015 60.2436C84.9999 60.67 85.0633 61.119 85.279 61.5006C85.4947 61.8821 85.8468 62.1679 86.2646 62.3006C86.8148 62.4083 87.3808 62.4083 87.931 62.3006L91.559 61.9361C91.7588 61.9333 91.9553 61.8851 92.1337 61.7952C92.3121 61.7053 92.4678 61.5761 92.5889 61.4173C92.7101 61.2585 92.7937 61.0743 92.8333 60.8785C92.8729 60.6827 92.8675 60.4804 92.8175 60.287L90.4394 52.9963C90.4016 52.8238 90.3292 52.6607 90.2264 52.5171C90.1237 52.3735 89.9928 52.2522 89.8417 52.1608C89.6906 52.0693 89.5225 52.0096 89.3476 51.9852C89.1727 51.9607 88.9946 51.9722 88.8243 52.0187C88.6539 52.0653 88.4948 52.146 88.3566 52.256C88.2185 52.366 88.1041 52.503 88.0206 52.6586C87.937 52.8142 87.886 52.9851 87.8706 53.1611C87.8552 53.337 87.8758 53.5142 87.931 53.682L90.3005 60.9206L91.559 59.2715L88.4518 59.584C87.9744 59.6274 87.4971 59.6968 87.0197 59.7229H86.9329C86.8027 59.7229 86.8027 59.7229 86.9329 59.7229C87.3842 59.7229 87.6186 60.1047 87.6446 60.7991V60.695C87.7574 60.4432 87.8442 60.1915 87.9397 59.9398L90.2918 54.0205C90.3843 53.6925 90.3454 53.3415 90.1833 53.0417C90.0213 52.742 89.7489 52.5171 89.4239 52.4148C89.0906 52.3354 88.7396 52.3852 88.4416 52.5543C88.1436 52.7235 87.9209 52.9992 87.8182 53.3261L87.7835 53.3435Z" fill="#2C2C2C"></path>
  <path d="M84.3813 67.5774C84.3657 68.5879 84.6706 69.5773 85.2522 70.4038C85.8338 71.2302 86.6623 71.8512 87.6187 72.1775C88.5829 72.4811 89.6211 72.4509 90.566 72.0918C91.5109 71.7328 92.3072 71.0658 92.8264 70.1986C93.4522 69.2274 93.685 68.0544 93.4773 66.9178C93.3769 66.5934 93.1537 66.3211 92.8554 66.159C92.557 65.9969 92.2071 65.9577 91.8803 66.0498C91.5591 66.1576 91.2907 66.3834 91.1296 66.6815C90.9685 66.9796 90.9266 67.3277 91.0124 67.6555C90.9516 67.265 91.0124 67.6555 91.0124 67.751C91.0124 67.8465 91.0124 67.9246 91.0124 68.0114C91.0124 68.0982 91.0124 68.1329 91.0124 67.9333C91.0157 67.9911 91.0157 68.0491 91.0124 68.1069C91.0124 68.1937 90.969 68.2718 90.9429 68.3586C90.9169 68.4454 90.943 68.5756 90.8562 68.6103C90.9343 68.4367 90.943 68.4107 90.8562 68.5408C90.8306 68.5976 90.8017 68.6526 90.7694 68.7058L90.6305 68.9314C90.6018 68.9825 90.5699 69.0318 90.535 69.079C90.6478 68.9314 90.6565 68.9141 90.535 69.0269C90.4079 69.1714 90.2716 69.3077 90.1271 69.4348C89.8754 69.6518 90.292 69.348 90.075 69.4782L89.8493 69.6171L89.6931 69.7039C89.5629 69.7646 89.589 69.756 89.7625 69.7039C89.7625 69.756 89.5716 69.7733 89.5108 69.7907C89.4501 69.808 89.3112 69.8428 89.2157 69.8688H89.3373H89.1637H88.8859H88.7123C88.9033 69.8688 88.938 69.8688 88.7905 69.8688L88.5301 69.7994C88.5301 69.7994 88.1569 69.6605 88.3478 69.7473C88.5387 69.8341 88.2089 69.6692 88.1829 69.6518L87.9485 69.5129L87.801 69.4088C87.9399 69.5216 87.9572 69.5303 87.8531 69.4088L87.6535 69.2265C87.5927 69.1658 87.4278 69.0356 87.4104 68.9575L87.4972 69.0703L87.3931 68.9227C87.3331 68.8362 87.278 68.7464 87.2282 68.6537C87.2282 68.6537 87.2282 68.5756 87.1674 68.5322C87.1067 68.4888 87.1153 68.428 87.1674 68.6016C87.1674 68.5148 86.9244 68.0374 86.9938 67.994C86.9938 68.3152 87.0632 67.9506 86.9938 67.994C86.9938 67.8725 86.9938 67.751 86.9938 67.6295C86.9938 67.2842 86.8566 66.9531 86.6125 66.7089C86.3683 66.4648 86.0372 66.3276 85.6919 66.3276C85.3466 66.3276 85.0155 66.4648 84.7713 66.7089C84.5272 66.9531 84.39 67.2842 84.39 67.6295L84.3813 67.5774Z" fill="#2C2C2C"></path>
  <path d="M16.4475 21.5427L13.2535 15.9184C13.0732 15.6335 12.7895 15.4296 12.462 15.3496C12.1345 15.2697 11.7887 15.3199 11.4975 15.4897C11.2063 15.6595 10.9922 15.9356 10.9005 16.26C10.8087 16.5844 10.8464 16.9318 11.0055 17.229L14.1995 22.8619C14.2862 23.0095 14.401 23.1386 14.5375 23.2418C14.674 23.3451 14.8295 23.4204 14.9952 23.4635C15.1608 23.5066 15.3333 23.5167 15.5028 23.4931C15.6723 23.4696 15.8355 23.4129 15.9831 23.3263C16.1308 23.2397 16.2598 23.1248 16.3631 22.9883C16.4663 22.8518 16.5416 22.6963 16.5847 22.5306C16.6278 22.365 16.6379 22.1925 16.6144 22.023C16.5908 21.8535 16.5341 21.6903 16.4475 21.5427Z" fill="#2C2C2C"></path>
  <path d="M11.5696 26.5327C9.04695 24.3752 6.35651 22.4219 3.52381 20.6914C3.37597 20.5979 3.2108 20.5351 3.03816 20.5069C2.86552 20.4786 2.68896 20.4854 2.51901 20.5269C2.34907 20.5684 2.18922 20.6437 2.04903 20.7483C1.90884 20.853 1.79118 20.9848 1.70307 21.1359C1.61496 21.2871 1.55821 21.4544 1.53621 21.6279C1.51421 21.8015 1.52742 21.9777 1.57504 22.146C1.62265 22.3144 1.70371 22.4714 1.81336 22.6077C1.92301 22.744 2.059 22.8568 2.21322 22.9394C4.85547 24.5492 7.3659 26.366 9.72091 28.3727C9.96492 28.6178 10.2963 28.756 10.6422 28.7568C10.9881 28.7577 11.3201 28.621 11.5653 28.377C11.8104 28.133 11.9486 27.8016 11.9494 27.4557C11.9503 27.1099 11.8136 26.7778 11.5696 26.5327Z" fill="#2C2C2C"></path>
  <path d="M8.69685 33.1377L1.63181 31.4799C1.46408 31.4247 1.28685 31.4041 1.11091 31.4195C0.93498 31.4349 0.764016 31.4859 0.608426 31.5695C0.452837 31.653 0.315874 31.7674 0.205871 31.9055C0.0958693 32.0437 0.0151285 32.2028 -0.0314396 32.3732C-0.0780077 32.5435 -0.0894285 32.7216 -0.0650075 32.8965C-0.0405865 33.0714 0.0191662 33.2395 0.110614 33.3906C0.202062 33.5417 0.323293 33.6726 0.466932 33.7753C0.610571 33.8781 0.773614 33.9505 0.94614 33.9883L8.0025 35.6374C8.33137 35.718 8.67872 35.6673 8.97084 35.4961C9.26297 35.3249 9.47689 35.0466 9.56723 34.7202C9.65756 34.3939 9.6172 34.0452 9.45471 33.7481C9.29221 33.4511 9.02037 33.229 8.69685 33.129V33.1377Z" fill="#2C2C2C"></path>
  <path d="M33.3724 38.2843C28.5032 31.5838 28.833 21.7935 34.6396 15.7786C37.405 12.8817 41.0579 10.9902 45.0197 10.4038C48.9815 9.81741 53.0257 10.5696 56.5117 12.5412C60.4044 14.7848 63.3499 18.3656 64.8005 22.618C64.8465 22.9633 65.0279 23.2761 65.3046 23.4877C65.4416 23.5925 65.5979 23.6693 65.7646 23.7137C65.9313 23.758 66.105 23.7691 66.276 23.7463C66.447 23.7235 66.6118 23.6673 66.761 23.5808C66.9103 23.4943 67.041 23.3793 67.1458 23.2423C67.2505 23.1052 67.3273 22.9489 67.3717 22.7823C67.416 22.6156 67.4271 22.4418 67.4043 22.2708C68.2723 14.5635 71.6833 5.71051 79.8333 3.28027C87.9832 0.850036 96.3849 5.12899 100.429 12.2721C102.689 16.3755 103.754 21.0301 103.502 25.7079C103.506 25.9357 103.569 26.1586 103.685 26.3548C103.801 26.551 103.966 26.7139 104.163 26.8275C104.361 26.9411 104.584 27.0017 104.812 27.0032C105.04 27.0047 105.265 26.9472 105.464 26.8362C109.803 23.9546 115.992 24.0935 119.941 27.6087C121.786 29.3116 123.063 31.5401 123.6 33.9928C124.138 36.4455 123.908 39.004 122.944 41.3221C122.885 41.5436 122.885 41.7766 122.944 41.998C123.003 42.2194 123.119 42.4214 123.281 42.5838C123.443 42.7463 123.644 42.8636 123.865 42.9239C124.086 42.9843 124.319 42.9856 124.541 42.9278C130.616 40.5497 139.721 37.807 144.564 44.0909C148.375 49.0555 146.196 56.4677 144.035 61.6754C143.61 62.6995 145.059 63.7758 145.944 63.1422C148.548 61.2501 152.471 62.2742 154.19 64.9562C156.429 68.4279 155.266 73.028 152.844 76.0658C150.241 79.2859 146.387 81.421 142.603 82.8965C138.677 84.4535 134.515 85.3339 130.295 85.5003C125.482 85.6824 120.683 84.8668 116.2 83.1048C115.979 83.0411 115.744 83.0381 115.521 83.0961C115.298 83.1542 115.095 83.2711 114.933 83.4346C108.302 89.6144 97.1313 90.1699 89.9795 84.5282C89.8366 84.3929 89.6655 84.291 89.4785 84.2299C89.2914 84.1688 89.0931 84.15 88.8979 84.1749C88.7027 84.1998 88.5155 84.2678 88.3498 84.374C88.1841 84.4801 88.0441 84.6217 87.9398 84.7886C86.0446 87.5089 83.6285 89.8262 80.8315 91.6062C78.0345 93.3863 74.9122 94.5939 71.6453 95.1589C68.3784 95.724 65.0319 95.6354 61.7995 94.8982C58.5671 94.161 55.5131 92.7899 52.8143 90.8642C52.566 90.718 52.2762 90.6583 51.9904 90.6944C51.7045 90.7305 51.4387 90.8605 51.2346 91.0638C49.8613 92.6245 48.1513 93.8528 46.2338 94.6559C44.3164 95.459 42.2414 95.8159 40.1658 95.6998C38.0902 95.5836 36.0681 94.9973 34.2522 93.9852C32.4363 92.9731 30.8741 91.5616 29.6836 89.8574C29.5325 89.6145 29.3083 89.4257 29.0432 89.3181C28.7781 89.2105 28.4858 89.1897 28.2081 89.2585C21.0129 90.9944 10.9361 93.0341 5.64165 86.1947C3.58215 83.4891 2.67442 80.0796 3.11594 76.7081C3.36039 75.0365 3.97908 73.4416 4.92587 72.0425C5.87266 70.6434 7.12311 69.476 8.58397 68.6276C10.2382 67.635 12.1003 67.0399 14.0236 66.8893C15.947 66.7387 17.879 67.0366 19.6676 67.7596C20.9174 68.2717 21.8027 66.4317 20.9348 65.5811C16.3607 60.9897 10.3719 54.7318 13.1493 47.7883C15.9528 40.6972 24.259 38.9093 31.0723 39.161C32.7475 39.2217 32.7475 36.6179 31.0723 36.5571C24.7277 36.3228 17.8536 37.6247 13.4358 42.5546C11.4432 44.708 10.201 47.4483 9.89456 50.3661C9.71364 53.4106 10.4874 56.4357 12.1078 59.0195C14.042 62.0747 16.3773 64.8567 19.0513 67.2909L20.3619 65.1471C12.7588 62.0399 3.1767 66.4403 0.937409 74.4167C-0.0858204 78.3208 0.459351 82.4704 2.45631 85.9777C3.55596 87.8315 5.04665 89.4232 6.82446 90.6419C8.60228 91.8606 10.6245 92.6769 12.7501 93.0341C18.14 94.0496 23.6688 92.9212 28.9112 91.654L27.4443 91.0552C28.8435 93.057 30.6627 94.7294 32.7749 95.9556C34.8871 97.1819 37.2414 97.9324 39.6736 98.1549C42.17 98.3311 44.6739 97.94 46.9977 97.0111C49.3215 96.0822 51.4049 94.6395 53.092 92.791L51.5123 92.9993C54.5044 95.1035 57.884 96.5934 61.4557 97.3827C65.0273 98.172 68.7201 98.2451 72.3202 97.5978C75.9203 96.9504 79.3562 95.5954 82.4292 93.6113C85.5021 91.6271 88.151 89.0532 90.2225 86.0385L88.1742 86.2988C96.463 92.8431 109.057 92.4352 116.816 85.2052L115.549 85.5437C124.975 89.1081 135.419 88.8527 144.66 84.832C148.939 83.0007 153.131 80.4229 155.761 76.4824C158.269 72.7329 159.033 67.2475 156.325 63.3765C153.825 59.7919 148.409 58.1689 144.677 60.8595L146.587 62.3263C148.626 57.4051 150.215 51.4857 148.539 46.2173C146.708 40.4715 141.101 37.5379 135.295 37.5987C131.32 37.6507 127.483 38.9613 123.838 40.3934L125.444 41.9904C126.649 39.1329 126.897 35.9617 126.15 32.9515C125.403 29.9413 123.701 27.254 121.299 25.2918C118.897 23.3296 115.925 22.198 112.826 22.0665C109.727 21.935 106.669 22.8106 104.11 24.5622L106.062 25.6818C106.453 16.5337 102.322 6.58713 93.9113 2.2995C89.8403 0.190884 85.1805 -0.49358 80.6752 0.355307C76.1958 1.30545 72.2598 3.95641 69.6957 7.75017C66.7187 11.9857 65.356 17.1673 64.7832 22.2448L67.387 21.8976C64.4273 13.279 55.7913 6.99506 46.5911 7.5679C37.226 8.18414 28.9719 15.1711 27.6006 24.5795C26.78 29.8551 28.0438 35.243 31.1244 39.6036C32.0965 40.9402 34.3531 39.647 33.3724 38.2843Z" fill="#2C2C2C"></path>
  <path d="M136.015 25.9168L142.03 23.5386C142.351 23.4309 142.62 23.2051 142.781 22.907C142.942 22.6089 142.984 22.2608 142.898 21.9329C142.796 21.6099 142.572 21.339 142.274 21.1771C141.976 21.0153 141.628 20.9751 141.301 21.065L135.355 23.4084C135.026 23.5075 134.748 23.7296 134.578 24.0287C134.408 24.3277 134.36 24.6807 134.444 25.0141C134.548 25.3379 134.773 25.6089 135.073 25.7706C135.372 25.9323 135.722 25.9723 136.05 25.8821L136.015 25.9168Z" fill="#2C2C2C"></path>
  <path d="M132.031 20.214C134.431 18.0802 136.657 15.7583 138.688 13.2705C138.926 13.0231 139.059 12.6934 139.059 12.3504C139.059 12.0074 138.926 11.6778 138.688 11.4304C138.443 11.1887 138.113 11.0532 137.768 11.0532C137.424 11.0532 137.093 11.1887 136.848 11.4304C134.817 13.9183 132.591 16.2402 130.191 18.374C129.949 18.6192 129.814 18.9497 129.814 19.294C129.814 19.6383 129.949 19.9688 130.191 20.214C130.439 20.4516 130.768 20.5843 131.111 20.5843C131.454 20.5843 131.784 20.4516 132.031 20.214Z" fill="#2C2C2C"></path>
  <path d="M125.808 16.4043L128.412 9.64306C128.504 9.3151 128.466 8.96403 128.304 8.66429C128.141 8.36454 127.869 8.13967 127.544 8.03737C127.218 7.95612 126.872 8.00018 126.577 8.16085C126.281 8.32152 126.057 8.58714 125.947 8.90531L123.343 15.6666C123.253 15.9945 123.293 16.3446 123.455 16.6437C123.616 16.9429 123.887 17.1681 124.211 17.2723C124.539 17.3539 124.885 17.3101 125.182 17.1495C125.479 16.9889 125.706 16.7232 125.817 16.4043H125.808Z" fill="#2C2C2C"></path>
  </g>
</svg>