<svg xmlns:xlink="http://www.w3.org/1999/xlink" class="vessi-icon vessi-icon-free-returns" viewBox="0 0 137 110" fill="none" xmlns="http://www.w3.org/2000/svg" width="137"  height="110" >
<path d="M15.0548 50.6482C14.1586 61.7347 16.6688 72.8305 22.2495 82.4519C27.8301 92.0732 36.2153 99.7613 46.2837 104.488C65.0713 113.338 88.9828 108.855 104.665 95.7347C113.475 88.314 119.482 78.1024 121.687 66.7962C123.73 55.4158 122.183 43.6818 117.261 33.2192C112.591 22.45 104.761 13.3532 94.8055 7.13376C85.5485 1.76062 74.8228 -0.529967 64.1785 0.593023C51.4059 1.81302 39.4741 7.50341 30.487 16.6609C21.5 25.8184 16.0347 37.855 15.0548 50.6482C14.8995 52.2009 17.3256 52.1815 17.4809 50.6482C18.3564 39.5856 22.7524 29.0942 30.0243 20.7116C37.2962 12.329 47.0618 6.49596 57.89 4.06726C67.667 1.75719 77.9153 2.47481 87.2749 6.1247C97.3092 10.3843 105.711 17.7522 111.245 27.1443C123.356 46.553 123.589 72.095 107.674 89.524C100.881 96.6789 92.2811 101.866 82.7838 104.538C73.2865 107.209 63.244 107.266 53.7171 104.702C30.4266 97.9667 15.4042 74.3851 17.4809 50.6482C17.6168 49.0567 15.1907 49.0567 15.0548 50.6482Z" fill="#2C2C2C"></path>
<path d="M78.9487 47.9111L78.6381 50.2792C80.9532 50.4951 83.2538 50.8449 85.5283 51.3271C88.0321 51.7347 90.5746 52.0259 93.0589 52.5887L92.7678 50.3761C78.5023 59.2459 65.7703 70.3672 51.3884 79.1011C43.1208 84.383 34.3661 88.8611 25.2447 92.4738C21.9695 93.7103 18.6097 94.709 15.1911 95.4626C12.1878 96.3343 9.0183 96.4677 5.95248 95.8509C2.26482 94.764 2.69182 91.0375 3.77871 88.0874C6.18539 81.5078 12.2022 76.1702 17.6949 72.1332C18.937 71.221 17.6949 69.1249 16.4721 70.0371C11.2357 73.651 6.7693 78.2691 3.33234 83.6233C1.39147 86.7481 -0.549434 91.3867 1.11972 94.9968C3.79813 100.936 13.3278 98.6456 18.0829 97.4423C25.905 95.255 33.4421 92.1541 40.5388 88.2037C50.5181 82.8486 60.116 76.8112 69.2638 70.1343C77.4349 64.3117 85.4313 57.9456 93.9905 52.6664C94.1914 52.5427 94.3522 52.3634 94.4535 52.1504C94.5548 51.9374 94.5923 51.6996 94.5615 51.4657C94.5307 51.2318 94.433 51.012 94.28 50.8324C94.1271 50.6528 93.9253 50.5213 93.6993 50.4538C91.0598 49.8715 88.3619 49.5609 85.6835 49.1339C83.3628 48.6144 81.0086 48.2578 78.6381 48.0666C78.35 48.0762 78.0747 48.1873 77.8606 48.3802C77.6464 48.5732 77.5072 48.8355 77.4677 49.1211C77.4283 49.4067 77.4909 49.697 77.6447 49.9409C77.7985 50.1847 78.0336 50.3664 78.3083 50.4538C79.8028 50.9584 80.4238 48.5128 78.9487 48.1246V47.9111Z" fill="#2C2C2C"></path>
<path d="M92.6895 66.6993L94.3395 53.3072L94.5723 51.3663C94.5724 51.0454 94.4461 50.7372 94.221 50.5084C93.9959 50.2797 93.6899 50.1486 93.369 50.1436C93.0463 50.1486 92.7382 50.279 92.5099 50.5072C92.2817 50.7355 92.1513 51.0436 92.1463 51.3663L90.4963 64.739L90.2634 66.6798C90.2634 67.0008 90.3897 67.309 90.6148 67.5377C90.8399 67.7665 91.1458 67.8975 91.4668 67.9026C91.7895 67.8976 92.0976 67.7672 92.3258 67.5389C92.5541 67.3107 92.6845 67.0026 92.6895 66.6798V66.6993Z" fill="#2C2C2C"></path>
<path d="M109.109 20.2341C112.786 17.8482 116.777 15.9865 120.968 14.7026C124.416 13.4638 128.119 13.1101 131.74 13.6739C138.63 15.4013 130.653 24.8145 128.343 27.26C124.964 30.7157 121.139 33.7052 116.97 36.1494C116.733 36.3303 116.57 36.5914 116.512 36.8838C116.454 37.1763 116.505 37.4797 116.655 37.7372C116.806 37.9947 117.045 38.1886 117.328 38.2822C117.611 38.3757 117.918 38.3626 118.192 38.2454C122.352 35.7914 126.192 32.8316 129.624 29.4338C132.806 26.5248 135.203 22.8599 136.592 18.7784C137.044 17.5506 137.047 16.2022 136.599 14.9727C136.152 13.7432 135.283 12.7123 134.146 12.0631C130.983 10.3745 126.791 11.0151 123.433 11.675C117.904 12.8873 112.642 15.0972 107.906 18.1963C106.586 19.0309 107.906 21.1269 109.129 20.2923L109.109 20.2341Z" fill="#2C2C2C"></path>
<path d="M40.3253 13.6547C42.9465 14.7084 45.1116 16.6537 46.4391 19.1475C47.0537 21.0466 47.0128 23.0971 46.3228 24.9701C45.4494 28.2308 43.586 32.2679 44.6923 35.7032C45.6433 38.6339 53.4068 40.4194 49.331 43.7965C46.8467 45.8732 43.1978 46.5331 40.267 47.6782C37.3363 48.8234 34.7162 50.1625 33.5517 52.9574C32.1154 56.3733 34.4833 60.7211 36.0166 63.8459C37.0526 66.1465 38.8866 67.9941 41.1794 69.0473C42.3689 69.5203 43.5877 69.9158 44.8283 70.2312C46.4198 70.6582 49.7192 71.0076 50.3597 72.5021C51.8736 76.0733 48.05 78.5771 46.8661 81.3332C45.8762 83.604 46.8661 86.0882 46.8661 88.4366C46.8661 91.1732 44.2266 93.2888 43.5667 95.9672C43.2346 97.1194 43.1845 98.3348 43.421 99.5104C43.6574 100.686 44.1734 101.787 44.9252 102.721C45.8762 103.944 47.5842 102.217 46.6332 100.994C44.4012 98.1409 46.4974 94.7252 48.186 92.2215C49.2128 90.4649 49.5386 88.3853 49.0981 86.3988C48.8919 85.3512 48.8202 84.2815 48.8846 83.2158C49.1175 81.7601 50.3209 80.8672 51.0973 79.7027C52.5582 77.6997 53.1969 75.2136 52.8827 72.7544C52.4751 70.1343 51.4465 69.6684 49.001 68.8727C47.3124 68.3486 45.6045 67.9411 43.9159 67.4365C42.6991 67.1598 41.5591 66.6155 40.5788 65.8434C39.5985 65.0712 38.8027 64.0905 38.2487 62.9724C36.5795 59.8475 33.7653 54.8983 37.0842 52.0646C39.6073 49.8909 43.2562 49.1728 46.2839 47.9889C48.7683 47.0184 51.6406 45.7762 52.6887 43.1172C52.9697 42.5119 53.0803 41.8415 53.0085 41.178C52.9367 40.5145 52.6852 39.8832 52.2812 39.3521C50.9614 37.5665 47.6424 36.8289 46.9049 34.7522C46.1674 32.6755 47.2542 29.9582 47.8171 28.1143C48.4937 26.2314 48.9561 24.2782 49.1952 22.2917C49.5446 17.1096 45.6823 13.8683 41.4318 11.6169C40.0537 10.8794 38.831 12.956 40.209 13.7129L40.3253 13.6547Z" fill="#2C2C2C"></path>
<path d="M89.5455 6.41524C85.7802 9.67591 86.2655 14.043 87.4494 18.4294C88.1511 20.3496 88.4933 22.3825 88.4587 24.4266C88.2403 25.566 87.7329 26.63 86.9853 27.517C86.2376 28.404 85.2746 29.0842 84.1886 29.4923C83.4766 29.7789 82.7831 30.1095 82.112 30.4821C81.4344 30.9741 80.7863 31.5057 80.1711 32.0738C78.9484 33.1219 77.1823 34.8685 75.4161 34.3056C71.8837 33.1993 73.4751 28.9876 74.3097 26.5421C75.621 23.8088 76.1452 20.7646 75.8236 17.7501C75.5713 15.9645 75.0668 14.2177 74.9503 12.4127C74.9503 11.0541 75.5907 9.38486 74.8337 8.20093C73.7274 6.47355 71.0879 5.54182 69.3411 4.68783C68.2154 4.14439 67.0703 3.62038 65.964 3.01871C65.5933 2.76362 65.2039 2.5366 64.7993 2.33945C64.7993 2.33945 64.5666 2.12598 64.5084 2.12598C64.3725 1.97071 64.4502 2.12598 64.5084 2.12598C64.5637 2.26863 64.5836 2.42243 64.5667 2.57448C64.5498 2.72652 64.4965 2.87224 64.4112 2.99928C65.5758 1.95121 63.8484 0.243229 62.6838 1.2913C59.7143 3.9503 69.7099 7.54091 71.0686 8.31726C71.5344 8.58898 72.6989 9.07428 73.0094 9.61773C72.7959 9.05488 72.7765 10.2194 72.7571 10.3553C72.718 10.8915 72.718 11.4298 72.7571 11.9661C72.8024 13.1212 72.9452 14.2705 73.184 15.4015C73.678 17.301 73.8872 19.2632 73.805 21.2241C73.4654 22.8605 72.9312 24.4506 72.2136 25.96C71.2238 28.5996 70.2727 31.899 71.9613 34.4416C74.1156 37.4888 77.6091 37.2945 80.3457 35.2566C81.5435 34.124 82.8429 33.1041 84.2275 32.2095C85.8802 31.5481 87.4043 30.6023 88.7305 29.4148C89.5213 28.6169 90.1369 27.6626 90.5379 26.6132C90.939 25.5638 91.1165 24.4424 91.0594 23.3204C90.8459 18.1965 86.6149 12.3155 91.4089 8.14265C92.5928 7.11398 90.8654 5.406 89.7009 6.43467L89.5455 6.41524Z" fill="#2C2C2C"></path>
<path d="M107.266 22.0588C107.206 25.3839 106.549 28.6711 105.325 31.7632C104.651 32.9433 103.829 34.0323 102.879 35.0043C101.721 36.3098 100.878 37.8637 100.415 39.5461C100.065 41.06 101.094 42.2827 101.831 43.6025C102.724 45.2134 103.656 46.805 104.451 48.4741C105.425 50.2906 106.081 52.2597 106.392 54.2967C106.356 56.1768 106.181 58.0517 105.868 59.9059C106.068 61.8367 106.892 63.6496 108.217 65.0687C109.769 67.0096 114.563 73.1814 117.785 71.2211C119.105 70.4059 117.785 68.3099 116.563 69.1251C115.786 69.5909 112.972 66.7571 112.351 66.136C110.631 64.6779 109.298 62.8178 108.469 60.7209C108.39 59.5631 108.515 58.4006 108.838 57.2858C109.007 55.7103 108.922 54.1178 108.586 52.5693C107.824 49.5524 106.6 46.6715 104.956 44.0294C104.054 42.8589 103.353 41.5473 102.879 40.1477C102.879 39.4684 103.578 38.3621 103.927 37.7799C104.631 36.7949 105.396 35.855 106.218 34.9657C109.09 31.3751 109.498 26.4064 109.886 22.02C110.022 20.4673 107.596 20.4673 107.46 22.02L107.266 22.0588Z" fill="#2C2C2C"></path>
<path d="M112.487 82.2845C109.575 79.1402 104.898 73.7639 99.9293 75.1419C95.6594 76.3065 93.272 81.7797 91.3311 85.2538L92.7091 84.7106C90.5159 83.8177 88.478 82.7695 86.3818 81.6438C86.0601 81.4031 85.6934 81.2294 85.3033 81.1328C84.9133 81.0361 84.5081 81.0185 84.1111 81.0811C83.2378 81.3334 82.8496 82.2262 82.442 83.022C81.5686 84.6135 80.6757 86.9036 78.8706 87.4276C74.5103 88.4007 70.4573 90.434 67.0702 93.3473C63.9735 96.7734 62.0496 101.097 61.5776 105.691C61.3447 107.225 63.6737 107.884 63.926 106.332C64.3037 102.067 66.0695 98.045 68.9528 94.8807C72.1986 92.2173 76.0411 90.3793 80.1517 89.5239C81.8791 89.0193 82.7331 87.2337 83.6259 85.6421C83.9831 84.7735 84.4458 83.9521 85.0039 83.1966C84.6545 83.4877 84.3634 83.1966 84.8098 83.4489C85.2798 83.7582 85.773 84.0306 86.2849 84.264C88.1745 85.2586 90.1184 86.1464 92.1075 86.9229C92.3672 86.9939 92.6428 86.9773 92.892 86.8756C93.1411 86.7738 93.3498 86.5926 93.4855 86.3602C95.0382 83.5654 97.0179 78.713 100.279 77.4709C104.16 75.9958 108.605 81.4692 110.837 83.8953C111.885 85.0404 113.612 83.313 112.545 82.1679L112.487 82.2845Z" fill="#2C2C2C"></path>
</svg>
