<svg xmlns:xlink="http://www.w3.org/1999/xlink" class="vessi-icon vessi-icon-free-shipping" viewBox="0 0 117 113" fill="none" xmlns="http://www.w3.org/2000/svg" width="117"  height="113" >
<path d="M51.5785 94.7713C51.5785 94.519 51.5785 95.1012 51.5785 94.7713V95.1399L51.4037 96.2269C51.2096 97.3526 51.0156 98.4589 50.8021 99.5846C50.1228 103.33 49.3853 107.057 48.6672 110.803C48.3761 112.317 50.608 112.977 50.9962 111.443C51.7337 107.562 52.4712 103.855 53.1699 100.05C53.4999 98.2842 53.8686 96.4986 54.0821 94.713C54.0724 94.3918 53.9404 94.0864 53.7132 93.8591C53.486 93.6319 53.1805 93.5 52.8593 93.4902C52.5384 93.4953 52.2325 93.6263 52.0074 93.8551C51.7822 94.0839 51.656 94.392 51.656 94.713L51.5785 94.7713Z" fill="#2C2C2C"></path>
<path d="M29.8987 84.5631C25.1824 88.6195 20.7766 93.0447 16.3126 97.3922C16.1251 97.6263 16.03 97.921 16.0456 98.2205C16.0612 98.52 16.1866 98.8033 16.3974 99.0166C16.6083 99.2298 16.89 99.3582 17.1892 99.3772C17.4885 99.3962 17.7845 99.3045 18.0206 99.1196C22.4652 94.7721 26.8904 90.3275 31.6067 86.2711C32.7907 85.2424 31.0632 83.5344 29.8793 84.5631H29.8987Z" fill="#2C2C2C"></path>
<path d="M19.2049 65.3281C17.3626 65.2214 15.5158 65.2214 13.6735 65.3281C9.52 65.3281 5.38587 65.5417 1.2324 65.6776C-0.320304 65.6776 -0.320304 68.1619 1.2324 68.1037C5.38587 67.9678 9.52 67.8318 13.6735 67.7542C15.5158 67.6474 17.3626 67.6474 19.2049 67.7542C20.7576 67.9289 20.7382 65.5028 19.2049 65.3281Z" fill="#2C2C2C"></path>
<path d="M29.84 25.9674L58.9531 18.2039L105.398 5.82108L116.112 2.96805L115.18 0.755423L51.6943 35.9046L42.8246 40.8345L44.2803 41.0091L30.3835 23.949C29.3937 22.7263 27.6857 24.4537 28.6561 25.657L42.5723 42.7365C42.7649 42.9235 43.0136 43.0421 43.2802 43.0737C43.5468 43.1053 43.8164 43.0482 44.0474 42.9114L107.533 7.76195L116.403 2.85172C116.654 2.70014 116.842 2.4635 116.933 2.18502C117.024 1.90654 117.012 1.60459 116.899 1.33423C116.786 1.06386 116.58 0.84299 116.318 0.711829C116.056 0.580669 115.755 0.54803 115.471 0.619666L86.3583 8.38317L39.9133 20.7854L29.1996 23.6384C28.8908 23.7233 28.6282 23.9274 28.4699 24.2058C28.3116 24.4843 28.2703 24.8144 28.3552 25.1232C28.4402 25.4321 28.6445 25.6946 28.9229 25.8529C29.2014 26.0113 29.5312 26.0523 29.84 25.9674Z" fill="#2C2C2C"></path>
<path d="M59.9243 54.4394L83.8552 77.4581C84.0091 77.5809 84.1901 77.6654 84.383 77.7045C84.576 77.7437 84.7754 77.7363 84.9649 77.6832C85.1545 77.6301 85.3286 77.5328 85.4731 77.3991C85.6177 77.2655 85.7283 77.0994 85.796 76.9146L112.968 11.3521L116.85 2.15235C117.335 0.968421 115.627 0.21129 114.909 0.98764L66.7173 46.3072L59.9048 52.712C58.7597 53.7795 60.4677 55.5069 61.6128 54.4394L109.805 9.1006L116.637 2.69562L114.696 1.51171L87.5235 67.0745L83.6417 76.2742L85.5826 75.7307L61.6517 52.6731C60.5066 51.5862 58.7986 53.3137 59.9243 54.4394Z" fill="#2C2C2C"></path>
<path d="M68.5801 61.9509L46.9975 71.4224L43.9505 72.7615L45.4256 74.7023L59.6132 56.9435L61.5541 54.4397C62.5245 53.217 60.8166 51.4896 59.8461 52.7123L45.639 70.4714L43.6982 72.9946C43.4844 73.2017 43.3534 73.4797 43.33 73.7764C43.3065 74.0732 43.3921 74.3682 43.5707 74.6064C43.7493 74.8445 44.0087 75.0092 44.3002 75.0698C44.5916 75.1304 44.8951 75.0827 45.1538 74.9355L66.7558 65.464L69.7834 64.1247C71.2196 63.5036 69.9777 61.4075 68.5609 62.0286L68.5801 61.9509Z" fill="#2C2C2C"></path>
<path d="M42.2432 41.8633L43.2331 69.7925L43.3688 73.81C43.3688 75.3627 45.8531 75.3821 45.7949 73.81L44.805 45.9002L44.6693 41.8633C44.6693 40.3106 42.185 40.3106 42.2432 41.8633Z" fill="#2C2C2C"></path>
</svg>