<svg xmlns:xlink="http://www.w3.org/1999/xlink" class="vessi-icon vessi-icon-lightweight" viewBox="0 0 121 116" fill="none" xmlns="http://www.w3.org/2000/svg" width="121"  height="116" >
	<path d="M119.128 109.721L95.1581 99.6484C87.1736 96.5294 79.4448 92.7915 72.0423 88.469C59.5593 80.3764 48.4638 70.323 39.1833 58.696C33.6712 52.0582 28.5473 45.1098 23.6563 37.9674C22.7829 36.7058 20.6673 37.9674 21.5601 39.1901C30.0889 51.9162 39.8395 63.7795 50.6732 74.6111C56.0887 79.8795 61.9746 84.6415 68.2576 88.8376C75.2857 93.3221 82.7196 97.1364 90.4612 100.231C99.8162 104.209 109.21 108.13 118.584 112.07C120.021 112.672 120.661 110.323 119.244 109.721H119.128Z" fill="#2C2C2C"></path>
	<path d="M104.164 104.674C105.481 100.244 105.15 95.4874 103.232 91.2824C101.469 86.7725 99.3602 82.4055 96.9245 78.2203C92.0128 69.6413 86.0108 61.7345 79.0684 54.6969C78.8773 54.5099 78.63 54.3907 78.3646 54.3577C78.0993 54.3246 77.8303 54.3794 77.5991 54.5138C77.3678 54.6481 77.187 54.8544 77.0843 55.1014C76.9816 55.3483 76.9628 55.6221 77.0305 55.8808L81.3004 75.639C82.659 81.9469 83.9788 88.0994 80.6988 94.0385L82.9307 94.3297C81.3198 84.9164 79.9612 75.3285 76.4482 66.381C72.9352 57.4336 66.938 49.5341 60.339 42.2753C60.1851 42.1309 59.9969 42.0282 59.7922 41.9768C59.5875 41.9253 59.373 41.9266 59.1691 41.981C58.9651 42.0354 58.7785 42.1408 58.6266 42.2874C58.4747 42.4339 58.3626 42.6169 58.301 42.8188C55.6111 49.3147 54.0806 56.2319 53.7788 63.2563C53.7788 64.809 56.1273 64.809 56.2049 63.2563C56.6171 55.6428 55.2291 48.0394 52.1538 41.0625C49.0784 34.0856 44.4022 27.9314 38.5042 23.0994C38.3333 22.9326 38.1173 22.8196 37.8828 22.7741C37.6484 22.7287 37.4058 22.7527 37.185 22.8436C36.9641 22.9344 36.7747 23.0879 36.6401 23.2852C36.5054 23.4824 36.4315 23.7148 36.4274 23.9535C36.8798 35.8945 38.6569 47.7481 41.726 59.2968L43.6669 58.1129C35.4958 48.9714 34.4477 35.9093 28.2563 25.5838C22.065 15.2584 12.2053 7.43655 2.20979 0.759945C1.14231 0.0418215 0.0166283 1.42003 0.540664 2.40988C4.66222 9.57565 7.91975 17.2047 10.245 25.1374C12.1859 32.7651 11.6813 40.6644 13.0205 48.4279C14.2266 55.505 17.6604 62.0121 22.8219 67.002C27.6546 71.8348 33.9237 76.7064 41.1244 75.9688C42.3665 75.8524 42.9099 73.7757 41.4543 73.5816L16.6305 70.1656C15.3689 69.991 14.3985 71.6407 15.6989 72.3783C27.0918 78.8802 36.7962 88.1383 48.6938 93.8445C59.1551 98.8907 71.6154 101.142 82.3873 95.7853C83.7847 95.0866 82.562 92.9903 81.1645 93.689C70.218 99.1817 57.2724 95.9599 47.044 90.3314C36.4662 84.5087 27.4412 76.3184 16.9604 70.3405L16.0288 72.5529L40.8526 75.9883L41.1632 73.601C33.652 74.2803 26.9753 68.3607 22.3949 63.0039C17.2516 57.0066 15.3689 50 14.7285 42.2753C14.1268 35.1523 13.855 28.1264 11.6813 21.2557C9.29182 14.3421 6.29779 7.65249 2.73386 1.26459L1.08411 2.93372C11.3513 9.80441 21.4632 17.8397 27.4217 28.9221C32.8368 39.0534 34.1954 51.1062 42.0559 59.976C42.2478 60.1323 42.4831 60.2258 42.7299 60.2435C42.9767 60.2612 43.2229 60.2024 43.4351 60.0751C43.6472 59.9478 43.815 59.7581 43.9155 59.5321C44.0161 59.306 44.0444 59.0544 43.9968 58.8116C40.9869 47.4715 39.2425 35.8329 38.7953 24.1087L36.7185 24.9628C42.3859 29.5749 46.8811 35.463 49.8361 42.1457C52.7912 48.8284 54.1224 56.1156 53.7206 63.4114H56.1467C56.4614 56.6036 57.9657 49.9036 60.5913 43.6146L58.5534 44.1579C65.2494 51.5138 71.2079 59.2773 74.6238 68.71C77.7292 77.211 79.0102 86.1778 80.4464 95.1253C80.514 95.3513 80.6455 95.553 80.825 95.706C81.0046 95.8589 81.2246 95.9566 81.4584 95.9874C81.6923 96.0182 81.9301 95.9807 82.1432 95.8794C82.3562 95.7781 82.5353 95.6173 82.6591 95.4164C85.745 89.8461 85.3763 84.0235 84.1147 77.9486C82.5232 70.3986 80.8734 62.8873 79.2431 55.3568L77.2052 56.5407C83.6263 63.0194 89.2198 70.2688 93.8579 78.1232C96.1246 81.9676 98.1534 85.9474 99.9328 90.0402C101.874 94.5042 103.407 99.3564 101.68 104.131C101.156 105.606 103.504 106.247 104.028 104.791L104.164 104.674Z" fill="#2C2C2C"></path>
	<path d="M80.5434 93.9225C78.8788 96.6759 76.6004 99.0073 73.8862 100.735C70.9197 102.097 67.5572 102.325 64.4342 101.376C58.8056 99.9977 53.6623 97.0668 47.8591 96.3875C47.6468 96.3903 47.4389 96.4484 47.2559 96.556C47.0728 96.6635 46.9209 96.817 46.8152 97.0011C46.7094 97.1852 46.6534 97.3937 46.6527 97.606C46.652 97.8183 46.7065 98.0272 46.811 98.212C49.0609 100.958 51.9179 103.144 55.1568 104.597C59.8514 107.079 64.7548 109.145 69.8104 110.769C75.1212 112.583 80.5936 113.882 86.1525 114.651C90.5811 115.461 95.1366 115.242 99.467 114.011C101.319 113.463 102.932 112.307 104.045 110.729C105.158 109.151 105.706 107.244 105.6 105.315C105.6 103.763 103.116 103.763 103.174 105.315C103.446 113.739 92.0334 112.963 86.3854 112.245C76.4976 110.884 66.9068 107.879 58.0099 103.355C54.9239 101.802 50.9063 99.9394 48.9072 96.9893L47.8591 98.8136C54.7492 99.6093 60.7659 103.918 67.7725 104.326C74.779 104.733 78.8937 100.444 82.6396 95.1453C83.5518 93.8837 81.4557 92.6804 80.5434 93.9225Z" fill="#2C2C2C"></path>
</svg>