<?xml version="1.0" encoding="UTF-8"?>
<svg id="_レイヤー_1" data-name="レイヤー 1" xmlns="http://www.w3.org/2000/svg" viewBox="0 0 120.79 128.01">
  <defs>
    <style>
      .cls-1 {
        fill: #005864;
      }
    </style>
  </defs>
  <path class="cls-1" d="m119.3,23.93c-1.26-1.55-3.16-2.45-5.16-2.45H27.31l-2.96-10.15h0c-1.36-4.55-5.09-7.99-9.72-8.98L4.02.07C2.22-.31.45.83.07,2.63s.76,3.57,2.56,3.95l10.61,2.28c2.26.48,4.08,2.16,4.74,4.38l19.4,66.64c-.44.2-.86.43-1.27.67-2.09,1.25-3.77,2.99-4.89,5.04-1.07,1.94-1.65,4.14-1.7,6.41h-.01v.35h0c.04,1.77.42,3.47,1.08,5.02,1.05,2.48,2.79,4.58,4.99,6.07,2.2,1.49,4.87,2.36,7.72,2.36h62.39c1.84,0,3.33-1.49,3.33-3.33s-1.49-3.33-3.33-3.33h-62.39c-1,0-1.92-.2-2.78-.56-1.28-.54-2.37-1.45-3.14-2.59-.74-1.1-1.17-2.39-1.21-3.81.04-1.69.58-3.16,1.52-4.33.49-.61,1.1-1.14,1.83-1.58.73-.43,1.58-.77,2.58-.99l62.71-10.21c4.1-.67,7.36-3.8,8.18-7.87l7.67-37.71h0c.09-.44.14-.89.13-1.33,0-1.52-.52-3.01-1.5-4.22h.01Z"/>
  <path class="cls-1" d="m50.99,111.2c-1.46-.99-3.24-1.57-5.14-1.57-1.26,0-2.48.26-3.58.72-1.65.7-3.05,1.86-4.04,3.33-.99,1.46-1.57,3.24-1.57,5.14,0,1.26.26,2.48.72,3.58.7,1.65,1.86,3.05,3.33,4.04,1.46.99,3.25,1.57,5.14,1.57,1.26,0,2.47-.26,3.58-.72,1.65-.7,3.05-1.86,4.04-3.32.99-1.46,1.57-3.25,1.57-5.14,0-1.26-.26-2.47-.72-3.57-.7-1.65-1.86-3.05-3.33-4.04v-.02Z"/>
  <path class="cls-1" d="m101.38,111.2c-1.46-.99-3.24-1.57-5.14-1.57-1.26,0-2.48.26-3.58.72-1.65.7-3.05,1.86-4.04,3.33-.99,1.46-1.57,3.24-1.57,5.14,0,1.26.26,2.48.72,3.58.7,1.65,1.86,3.05,3.32,4.04s3.25,1.57,5.14,1.57c1.26,0,2.47-.26,3.57-.72,1.65-.7,3.05-1.86,4.04-3.32.99-1.46,1.57-3.25,1.57-5.14,0-1.26-.26-2.47-.72-3.57-.7-1.65-1.86-3.05-3.33-4.04l.02-.02Z"/>
</svg>