<svg xmlns:xlink="http://www.w3.org/1999/xlink" class="vessi-icon vessi-icon-vegan-new" viewBox="0 0 130 124" fill="none" xmlns="http://www.w3.org/2000/svg" width="130"  height="124" >
<path d="M67.1606 36.2539C65.3165 65.0479 65.5304 93.937 67.801 122.701C67.9175 124.253 70.3435 124.273 70.2271 122.701C67.9565 93.937 67.7425 65.0479 69.5867 36.2539C69.6837 34.7012 67.2576 34.7012 67.1606 36.2539Z" fill="#2C2C2C"></path>
<path d="M68.9849 62.5722C70.6541 49.5489 80.9795 39.2818 91.4796 32.3917C102.344 25.2782 114.902 21.179 127.871 20.5136L126.707 18.9802C124.884 32.4129 118.107 44.6795 107.705 53.3725C102.171 57.8571 95.7234 61.0788 88.814 62.812C81.9046 64.5452 74.6999 64.7482 67.7039 63.4069C66.19 63.0963 65.5301 65.3477 67.0634 65.7553C74.2208 67.1507 81.5933 67.0072 88.6909 65.334C95.7885 63.6608 102.449 60.4963 108.229 56.0509C119.584 47.0366 127.034 33.9987 129.036 19.6401C129.083 19.4606 129.088 19.2728 129.052 19.0909C129.016 18.9089 128.939 18.7378 128.827 18.59C128.714 18.4423 128.57 18.3219 128.405 18.2382C128.239 18.1545 128.056 18.1097 127.871 18.1069C113.931 18.8062 100.454 23.3323 88.9176 31.1884C78.1652 38.5831 68.2668 49.1414 66.5588 62.5916C66.3453 64.1249 68.7908 64.1055 68.9849 62.5916V62.5722Z" fill="#2C2C2C"></path>
<path d="M69.3532 64.4162C83.1061 56.9345 95.9435 47.8811 107.608 37.438C108.772 36.4093 107.045 34.682 105.88 35.73C94.3706 46.0271 81.7022 54.9503 68.1305 62.3199C66.7525 63.0769 67.9752 65.1731 69.3532 64.4162Z" fill="#2C2C2C"></path>
<path d="M67.1022 54.5953C59.3264 57.0637 51.0127 57.2926 43.113 55.2554C37.6936 53.9344 32.6733 51.3243 28.4788 47.6471C19.6284 40.0583 13.8445 29.3446 9.34171 18.728C6.91562 12.9054 4.8583 7.08278 2.91742 1.26015L1.44234 2.75466C8.27422 4.69554 15.4167 5.51072 22.2874 7.37395C29.4367 9.36317 35.9795 13.098 41.3274 18.2428C52.468 28.6847 58.7953 42.8725 64.9672 56.5751C65.6077 57.9919 67.7038 56.7497 67.0633 55.3523C60.7361 41.2227 54.0983 26.6079 42.453 15.9913C37.3288 11.1888 31.1944 7.59452 24.4999 5.47194C17.1634 3.25934 9.43878 2.61888 2.08286 0.406281C1.87606 0.351654 1.65857 0.35221 1.45205 0.407939C1.24554 0.463668 1.0572 0.572507 0.905947 0.723758C0.754697 0.875008 0.645857 1.06335 0.590128 1.26987C0.534399 1.47638 0.533725 1.69398 0.588351 1.90079C4.35365 13.3908 8.60427 24.9 15.0092 35.206C21.1617 45.1045 29.7404 54.1878 41.308 57.332C49.9686 59.819 59.1702 59.6974 67.7621 56.9826C69.2178 56.4585 68.5772 54.1102 67.1022 54.6342V54.5953Z" fill="#2C2C2C"></path>
<path d="M66.4229 55.1582C59.287 51.0906 52.5769 46.3182 46.393 40.9122C40.2112 35.3484 34.5047 29.2783 29.3328 22.7651C28.3429 21.5617 26.6349 23.2695 27.6054 24.4728C32.9155 31.1636 38.7922 37.3846 45.1703 43.0666C51.3735 48.4309 58.0814 53.1822 65.2001 57.2542C65.4742 57.3714 65.7816 57.3845 66.0646 57.2909C66.3477 57.1974 66.5868 57.0035 66.737 56.746C66.8872 56.4885 66.9381 56.185 66.8802 55.8926C66.8224 55.6002 66.6598 55.3391 66.4229 55.1582Z" fill="#2C2C2C"></path>
<path d="M48.6835 72.6262L47.6548 80.8555C47.6922 81.1508 47.8361 81.4223 48.0594 81.6191C48.2828 81.8159 48.5702 81.9245 48.8678 81.9245C49.1655 81.9245 49.453 81.8159 49.6763 81.6191C49.8997 81.4223 50.0435 81.1508 50.0809 80.8555L51.1096 72.6262C51.2066 71.9857 50.5079 71.4229 49.9063 71.4229C49.5883 71.4323 49.2857 71.5615 49.0589 71.7846C48.8322 72.0078 48.698 72.3084 48.6835 72.6262Z" fill="#2C2C2C"></path>
<path d="M39.3088 67.5805L34.4178 75.344C34.2543 75.6222 34.2074 75.9539 34.2874 76.2665C34.3674 76.5792 34.5677 76.8475 34.8448 77.0131C35.1253 77.1668 35.4537 77.2082 35.7636 77.1289C36.0734 77.0497 36.3416 76.8557 36.5139 76.5861L41.4049 68.8226C41.5221 68.5486 41.5351 68.2409 41.4415 67.9579C41.348 67.6749 41.1542 67.4359 40.8967 67.2857C40.6393 67.1355 40.3358 67.0845 40.0433 67.1424C39.7509 67.2002 39.4897 67.363 39.3088 67.5999V67.5805Z" fill="#2C2C2C"></path>
<path d="M28.4598 62.2042L21.7055 66.4546C21.4686 66.6355 21.3059 66.8969 21.2481 67.1893C21.1902 67.4817 21.2412 67.7852 21.3914 68.0427C21.5416 68.3002 21.7807 68.4938 22.0637 68.5874C22.3467 68.6809 22.6541 68.6681 22.9282 68.5509L29.7019 64.3002C29.9737 64.1349 30.1704 63.87 30.2501 63.562C30.3298 63.2539 30.2864 62.927 30.1289 62.6505C29.9631 62.3741 29.6961 62.1728 29.3846 62.0895C29.0731 62.0062 28.7416 62.0474 28.4598 62.2042Z" fill="#2C2C2C"></path>
</svg>