<svg xmlns="http://www.w3.org/2000/svg" viewBox="0 0 1000 1000"><defs><style>.cls-1{fill:#005864;}</style></defs><title>VessiLogo</title><g id="Logos"><path class="cls-1" d="M344.22,439.81H302a8.25,8.25,0,0,0-6.87,3.68l-10,14.94a8.27,8.27,0,0,0,0,9.16l.37.56a8.27,8.27,0,0,0,13.76,0L307,456.64a3.11,3.11,0,0,1,2.57-1.37h13.28a3.09,3.09,0,0,1,2.57,4.8L300.19,498a3.09,3.09,0,0,1-5.14,0L258.79,443.5a8.28,8.28,0,0,0-6.88-3.69h-42.1a8.27,8.27,0,0,0-6.88,12.86l67.2,100.71a8.27,8.27,0,0,0,13.53.32l8.71-13a8.57,8.57,0,0,0,1.31-4.54,8.87,8.87,0,0,0-9-8.76,9.09,9.09,0,0,0-2.79.44,8.64,8.64,0,0,0-2.45,1.22,12.06,12.06,0,0,1-1.14.89,2.46,2.46,0,0,1-1,.32,3.12,3.12,0,0,1-2-.54,3.46,3.46,0,0,1-.87-.88L228.6,460.07a3.09,3.09,0,0,1,2.57-4.8h13.07a3.11,3.11,0,0,1,2.57,1.37l40.48,60.68,3.46,5.17a8.26,8.26,0,0,0,13.75,0l3.45-5.17s41.4-62.05,41.41-62.05l1.74-2.61A8.27,8.27,0,0,0,344.22,439.81Z"/><path class="cls-1" d="M593,468.78a7.08,7.08,0,0,1-8.86-1,17.88,17.88,0,0,0-12.84-5.38,11.34,11.34,0,0,0-8.19,3,8.63,8.63,0,0,0-2.46,6c0,3,1.37,4.92,3.82,6.56,1.64,1.09,3.28,1.64,9,4.64l13.65,6.83c6,3,11.74,6,16.11,10.65,6.29,6.28,8.47,13.38,8.47,21.3a38.19,38.19,0,0,1-10.1,26.22c-9,9.83-20.21,12.84-32.23,12.84-7.37,0-16.66-1.1-24.85-7.38a43.24,43.24,0,0,1-11.87-14.31,7,7,0,0,1,3.19-9.6l9.36-4.44a7,7,0,0,1,9.15,3,18.86,18.86,0,0,0,3.55,4.85c1.64,1.64,5.46,4.37,11.74,4.37,4.1,0,8.47-1.37,10.93-3.82a13.6,13.6,0,0,0,3.82-9,12.28,12.28,0,0,0-3.31-8.47c-.16-.17-.32-.35-.49-.51-3.22-3.13-7-5-11.22-6.86l-9.83-4.64c-5.19-2.46-11.47-5.46-15.84-9.83a25.08,25.08,0,0,1-8.2-19.39A35.89,35.89,0,0,1,545,449.88C550.23,444.42,559,439,573.17,439c8.2,0,14.75,1.64,21.3,6a38.29,38.29,0,0,1,8.71,7.75,7,7,0,0,1-1.52,10.35Z"/><path class="cls-1" d="M799.08,446.62V550.83a7,7,0,0,1-7,7H779.62a7,7,0,0,1-7-7V460.68a7,7,0,0,1,2.64-5.48L791,442.7A5,5,0,0,1,799.08,446.62Z"/><path class="cls-1" d="M710,468.78a7.08,7.08,0,0,1-8.86-1,17.88,17.88,0,0,0-12.84-5.38,11.34,11.34,0,0,0-8.19,3,8.63,8.63,0,0,0-2.46,6c0,3,1.37,4.92,3.82,6.56,1.64,1.09,3.28,1.64,9,4.64l13.65,6.83c6,3,11.74,6,16.11,10.65,6.29,6.28,8.47,13.38,8.47,21.3a38.19,38.19,0,0,1-10.1,26.22c-9,9.83-20.21,12.84-32.23,12.84-7.37,0-16.66-1.1-24.85-7.38a43.24,43.24,0,0,1-11.87-14.31,7,7,0,0,1,3.19-9.6l9.36-4.44a7,7,0,0,1,9.15,3,18.86,18.86,0,0,0,3.55,4.85c1.64,1.64,5.46,4.37,11.74,4.37,4.1,0,8.47-1.37,10.93-3.82a13.6,13.6,0,0,0,3.82-9,12.28,12.28,0,0,0-3.31-8.47c-.16-.17-.32-.35-.49-.51-3.22-3.13-7-5-11.22-6.86l-9.83-4.64c-5.19-2.46-11.47-5.46-15.84-9.83a25.08,25.08,0,0,1-8.2-19.39A35.89,35.89,0,0,1,662,449.88C667.23,444.42,676,439,690.17,439c8.2,0,14.75,1.64,21.3,6a38.29,38.29,0,0,1,8.71,7.75,7,7,0,0,1-1.52,10.35Z"/><path class="cls-1" d="M486.27,529.56a3.4,3.4,0,0,1,1.23,4.77,59.44,59.44,0,0,1-17.56,18c-9.29,6-21.58,8.74-33.87,8.74-15.29,0-27.86-3.83-38.78-14.75s-16.93-26.77-16.93-44c0-17.75,6.28-35,18.3-47.25,9.55-9.56,22.12-15.57,38.5-15.57,18.3,0,30,7.92,36.87,15a53.31,53.31,0,0,1,16,37.39v0s1,14-11,14l-67.63.48a3.28,3.28,0,0,0-3.24,3.84c1.23,7.13,4.52,14.52,9.37,19.38,6.28,6.28,13.93,7.37,20.48,7.37,7.38,0,12.84-1.64,18.3-5.73a40.36,40.36,0,0,0,9.05-9.92,3.35,3.35,0,0,1,4.45-1.05Zm-27.81-45a3.41,3.41,0,0,0,3.22-4.51,27.08,27.08,0,0,0-7-11.06c-3.55-3.28-9.28-6.56-18-6.56-9.29,0-15.3,3.83-18.85,7.38A28.4,28.4,0,0,0,411.06,480a3.4,3.4,0,0,0,3.17,4.63Z"/></g></svg>