<svg version="1.1" id="レイヤー_1" xmlns="http://www.w3.org/2000/svg" xmlns:xlink="http://www.w3.org/1999/xlink" x="0px"
	 y="0px" viewBox="0 0 1000 1000" style="enable-background:new 0 0 1000 1000;" xml:space="preserve">
<style type="text/css">
	.st0{fill:#005864;}
</style>
<g id="Logos">
	<path id="letter1" class="st0" d="M344.2,439.8H302c-2.8,0-5.3,1.4-6.9,3.7l-10,14.9c-1.8,2.8-1.8,6.4,0,9.2l0.4,0.6
		c2.5,3.8,7.7,4.8,11.5,2.3c0.9-0.6,1.7-1.4,2.3-2.3l7.7-11.5c0.6-0.9,1.5-1.4,2.6-1.4h13.3c1.7,0,3.1,1.4,3.1,3.1
		c0,0.6-0.2,1.2-0.5,1.7L300.2,498c-0.9,1.4-2.9,1.8-4.3,0.9c-0.3-0.2-0.6-0.5-0.9-0.9l-36.3-54.5c-1.5-2.3-4.1-3.7-6.9-3.7h-42.1
		c-4.6,0-8.3,3.7-8.3,8.3c0,1.6,0.5,3.2,1.4,4.6l67.2,100.7c2.5,3.8,7.7,4.8,11.5,2.3c0.8-0.5,1.5-1.2,2.1-2l8.7-13
		c0.9-1.4,1.3-2.9,1.3-4.5c-0.1-4.9-4.1-8.8-9-8.8c0,0,0,0,0,0c-0.9,0-1.9,0.1-2.8,0.4c-0.9,0.3-1.7,0.7-2.5,1.2
		c-0.4,0.3-0.7,0.6-1.1,0.9c-0.3,0.2-0.6,0.3-1,0.3c-0.7,0.1-1.4-0.1-2-0.5c-0.3-0.2-0.6-0.5-0.9-0.9l-45.8-68.8
		c-0.9-1.4-0.6-3.3,0.9-4.3c0.5-0.3,1.1-0.5,1.7-0.5h13.1c1,0,2,0.5,2.6,1.4l40.5,60.7l3.5,5.2c2.5,3.8,7.7,4.8,11.5,2.3
		c0.9-0.6,1.7-1.4,2.3-2.3l3.5-5.2c0,0,41.4-62,41.4-62l1.7-2.6c2.5-3.8,1.5-8.9-2.3-11.5C347.4,440.3,345.8,439.8,344.2,439.8z"/>
	<path id="letter2" class="st0" d="M486.3,529.6c1.6,0.9,2.2,3,1.3,4.6c0,0-0.1,0.1-0.1,0.1c-4.5,7.2-10.5,13.3-17.6,18
		c-9.3,6-21.6,8.7-33.9,8.7c-15.3,0-27.9-3.8-38.8-14.8s-16.9-26.8-16.9-44c0-17.8,6.3-35,18.3-47.2c9.5-9.6,22.1-15.6,38.5-15.6
		c18.3,0,30,7.9,36.9,15c10.1,9.9,15.8,23.3,16,37.4l0,0c0,0,1,14-11,14l-67.6,0.5c-1.8,0-3.3,1.5-3.3,3.3c0,0.2,0,0.4,0,0.6
		c1.2,7.1,4.5,14.5,9.4,19.4c6.3,6.3,13.9,7.4,20.5,7.4c7.4,0,12.8-1.6,18.3-5.7c3.5-2.8,6.6-6.1,9-9.9c1-1.5,2.9-1.9,4.5-1
		L486.3,529.6z M458.5,484.6c1.9,0,3.4-1.5,3.4-3.4c0-0.4-0.1-0.7-0.2-1.1c-1.4-4.2-3.8-8-7-11.1c-3.5-3.3-9.3-6.6-18-6.6
		c-9.3,0-15.3,3.8-18.9,7.4c-3,2.9-5.3,6.3-6.8,10.2c-0.7,1.8,0.2,3.7,1.9,4.4c0.4,0.2,0.8,0.2,1.2,0.2L458.5,484.6z"/>
	<path id="letter3" class="st0" d="M593,468.8c-2.8,1.8-6.5,1.4-8.9-1c-3.4-3.5-8-5.4-12.8-5.4c-3-0.1-6,0.9-8.2,3
		c-1.6,1.6-2.5,3.8-2.5,6c0,3,1.4,4.9,3.8,6.6c1.6,1.1,3.3,1.6,9,4.6l13.7,6.8c6,3,11.7,6,16.1,10.6c6.3,6.3,8.5,13.4,8.5,21.3
		c0.1,9.7-3.5,19.1-10.1,26.2c-9,9.8-20.2,12.8-32.2,12.8c-7.4,0-16.7-1.1-24.8-7.4c-4.9-3.9-9-8.7-11.9-14.3
		c-1.8-3.4-0.5-7.7,2.9-9.5c0.1,0,0.2-0.1,0.3-0.1l9.4-4.4c3.4-1.6,7.4-0.3,9.2,3c0.9,1.8,2.1,3.4,3.5,4.8c1.6,1.6,5.5,4.4,11.7,4.4
		c4.1,0,8.5-1.4,10.9-3.8c2.3-2.4,3.7-5.6,3.8-9c0-3.1-1.2-6.2-3.3-8.5c-0.2-0.2-0.3-0.3-0.5-0.5c-3.2-3.1-7-5-11.2-6.9l-9.8-4.6
		c-5.2-2.5-11.5-5.5-15.8-9.8c-5.4-4.9-8.4-12-8.2-19.4c-0.1-9.1,3.3-17.9,9.5-24.5c5.2-5.5,14-10.9,28.2-10.9
		c8.2,0,14.8,1.6,21.3,6c3.3,2.1,6.2,4.7,8.7,7.8c2.5,3,2.1,7.4-0.9,9.9c-0.2,0.2-0.4,0.3-0.7,0.5L593,468.8z"/>
	<path id="letter4" class="st0" d="M710,468.8c-2.8,1.8-6.5,1.4-8.9-1c-3.4-3.5-8-5.4-12.8-5.4c-3-0.1-6,0.9-8.2,3
		c-1.6,1.6-2.5,3.8-2.5,6c0,3,1.4,4.9,3.8,6.6c1.6,1.1,3.3,1.6,9,4.6l13.7,6.8c6,3,11.7,6,16.1,10.6c6.3,6.3,8.5,13.4,8.5,21.3
		c0.1,9.7-3.5,19.1-10.1,26.2c-9,9.8-20.2,12.8-32.2,12.8c-7.4,0-16.7-1.1-24.8-7.4c-4.9-3.9-9-8.7-11.9-14.3
		c-1.8-3.4-0.5-7.7,2.9-9.5c0.1,0,0.2-0.1,0.3-0.1l9.4-4.4c3.4-1.6,7.4-0.3,9.2,3c0.9,1.8,2.1,3.4,3.5,4.8c1.6,1.6,5.5,4.4,11.7,4.4
		c4.1,0,8.5-1.4,10.9-3.8c2.3-2.4,3.7-5.6,3.8-9c0-3.1-1.2-6.2-3.3-8.5c-0.2-0.2-0.3-0.3-0.5-0.5c-3.2-3.1-7-5-11.2-6.9l-9.8-4.6
		c-5.2-2.5-11.5-5.5-15.8-9.8c-5.4-4.9-8.4-12-8.2-19.4c-0.1-9.1,3.3-17.9,9.5-24.5c5.2-5.5,14-10.9,28.2-10.9
		c8.2,0,14.8,1.6,21.3,6c3.3,2.1,6.2,4.7,8.7,7.8c2.5,3,2.1,7.4-0.9,9.9c-0.2,0.2-0.4,0.3-0.7,0.5L710,468.8z"/>
	<path id="letter5" class="st0" d="M799.1,446.6v104.2c0,3.9-3.1,7-7,7h-12.5c-3.9,0-7-3.1-7-7v-90.2c0-2.1,1-4.2,2.6-5.5l15.7-12.5
		c2.2-1.7,5.3-1.3,7,0.9C798.7,444.4,799.1,445.5,799.1,446.6z"/>
</g>
</svg>
