<svg xmlns="http://www.w3.org/2000/svg" viewBox="0 0 1000 1000"><defs><style>.cls-1{fill:#005864;}</style></defs><title>VessiLogo</title><g id="Logos"><path class="cls-1" d="M246.58,446.63l24.65,54.78a3.28,3.28,0,0,0,6,0l24.65-54.78a7,7,0,0,1,6.38-4.13H322.6a7,7,0,0,1,6.3,10.05L280.52,552.64a7,7,0,0,1-12.6,0L219.54,452.55a7,7,0,0,1,6.3-10.05H240.2A7,7,0,0,1,246.58,446.63Z"/><path class="cls-1" d="M575,469.32a7.06,7.06,0,0,1-8.86-1A17.86,17.86,0,0,0,553.34,463a11.34,11.34,0,0,0-8.19,3,8.65,8.65,0,0,0-2.46,6c0,3,1.37,4.91,3.82,6.55,1.64,1.09,3.28,1.64,9,4.65L569.18,490c6,3,11.75,6,16.12,10.65,6.28,6.29,8.46,13.39,8.46,21.31a38.16,38.16,0,0,1-10.1,26.21c-9,9.84-20.21,12.84-32.23,12.84-7.37,0-16.66-1.09-24.85-7.37a43.28,43.28,0,0,1-11.87-14.32,7,7,0,0,1,3.19-9.6l9.36-4.44a7,7,0,0,1,9.15,3,18.79,18.79,0,0,0,3.55,4.84c1.64,1.64,5.46,4.37,11.74,4.37,4.1,0,8.47-1.36,10.93-3.82a13.58,13.58,0,0,0,3.82-9,12.28,12.28,0,0,0-3.31-8.47c-.16-.18-.32-.36-.49-.52-3.22-3.13-7-5-11.22-6.85l-9.83-4.65c-5.19-2.45-11.47-5.46-15.84-9.83-6-5.73-8.19-12-8.19-19.39a36,36,0,0,1,9.55-24.58c5.19-5.46,13.93-10.92,28.13-10.92,8.2,0,14.75,1.64,21.31,6a38,38,0,0,1,8.7,7.74,7,7,0,0,1-1.52,10.35Z"/><path class="cls-1" d="M781.17,450.29V554.5a7,7,0,0,1-7,7H761.7a7,7,0,0,1-7-7V464.35a7,7,0,0,1,2.64-5.48l15.71-12.5A5,5,0,0,1,781.17,450.29Z"/><path class="cls-1" d="M692,468.32a7.06,7.06,0,0,1-8.86-1A17.86,17.86,0,0,0,670.34,462a11.34,11.34,0,0,0-8.19,3,8.65,8.65,0,0,0-2.46,6c0,3,1.37,4.91,3.82,6.55,1.64,1.09,3.28,1.64,9,4.65L686.18,489c6,3,11.75,6,16.12,10.65,6.28,6.29,8.46,13.39,8.46,21.31a38.16,38.16,0,0,1-10.1,26.21c-9,9.84-20.21,12.84-32.23,12.84-7.37,0-16.66-1.09-24.85-7.37a43.28,43.28,0,0,1-11.87-14.32,7,7,0,0,1,3.19-9.6l9.36-4.44a7,7,0,0,1,9.15,3,18.79,18.79,0,0,0,3.55,4.84c1.64,1.64,5.46,4.37,11.74,4.37,4.1,0,8.47-1.36,10.93-3.82a13.58,13.58,0,0,0,3.82-9,12.28,12.28,0,0,0-3.31-8.47c-.16-.18-.32-.36-.49-.52-3.22-3.13-7-5-11.22-6.85l-9.83-4.65c-5.19-2.45-11.47-5.46-15.84-9.83-6-5.73-8.19-12-8.19-19.39a36,36,0,0,1,9.55-24.58c5.19-5.46,13.93-10.92,28.13-10.92,8.2,0,14.75,1.64,21.31,6a38,38,0,0,1,8.7,7.74,7,7,0,0,1-1.52,10.35Z"/><path class="cls-1" d="M468.35,529.55a3.39,3.39,0,0,1,1.23,4.76,59.21,59.21,0,0,1-17.56,18c-9.29,6-21.58,8.74-33.87,8.74-15.29,0-27.85-3.82-38.78-14.75s-16.93-26.76-16.93-44c0-17.75,6.28-34.95,18.3-47.24,9.56-9.56,22.12-15.57,38.51-15.57,18.29,0,30,7.92,36.87,15a53.3,53.3,0,0,1,16,37.39v0s1,14-11,14l-67.63.49a3.29,3.29,0,0,0-3.24,3.84c1.23,7.12,4.52,14.52,9.37,19.37,6.28,6.28,13.93,7.38,20.48,7.38,7.38,0,12.84-1.64,18.3-5.74a40.17,40.17,0,0,0,9.05-9.92,3.36,3.36,0,0,1,4.45-1.05Zm-27.81-45a3.41,3.41,0,0,0,3.23-4.51,27.1,27.1,0,0,0-7-11.06c-3.55-3.27-9.28-6.55-18-6.55-9.29,0-15.29,3.82-18.84,7.37a28.47,28.47,0,0,0-6.72,10.12,3.39,3.39,0,0,0,3.17,4.63Z"/></g></svg>